<mxfile host="app.diagrams.net" agent="Mozilla/5.0 (Macintosh; Intel Mac OS X 10_15_7) AppleWebKit/537.36 (KHTML, like Gecko) Chrome/130.0.0.0 Safari/537.36" version="24.8.3" pages="11">
  <diagram id="JJSBbU11KBproi6Js5Is" name="01 - keys">
    <mxGraphModel dx="782" dy="721" grid="1" gridSize="10" guides="1" tooltips="1" connect="1" arrows="1" fold="1" page="1" pageScale="1" pageWidth="1920" pageHeight="1200" math="0" shadow="0">
      <root>
        <mxCell id="0" />
        <mxCell id="1" parent="0" />
        <mxCell id="-oswrm9NzoSEgWR_AtZv-1" value="Database" style="rounded=0;whiteSpace=wrap;html=1;shadow=1;fontSize=22;fillColor=#d5e8d4;strokeColor=#82b366;" parent="1" vertex="1">
          <mxGeometry x="400" y="260" width="670" height="30" as="geometry" />
        </mxCell>
        <mxCell id="-oswrm9NzoSEgWR_AtZv-2" value="" style="rounded=0;whiteSpace=wrap;html=1;shadow=1;fontSize=22;fillColor=#d5e8d4;strokeColor=#82b366;" parent="1" vertex="1">
          <mxGeometry x="400" y="290" width="670" height="190" as="geometry" />
        </mxCell>
        <mxCell id="-oswrm9NzoSEgWR_AtZv-3" value="photos" style="rounded=0;whiteSpace=wrap;html=1;shadow=1;fontSize=20;fillColor=#ffe6cc;strokeColor=#d79b00;" parent="1" vertex="1">
          <mxGeometry x="410" y="310" width="240" height="25" as="geometry" />
        </mxCell>
        <mxCell id="-oswrm9NzoSEgWR_AtZv-4" value="id&lt;br&gt;&lt;font style=&quot;font-size: 8px&quot;&gt;INTEGER&lt;/font&gt;" style="rounded=0;whiteSpace=wrap;html=1;shadow=1;fontSize=12;fillColor=#f5f5f5;strokeColor=#666666;fontColor=#333333;fontStyle=2" parent="1" vertex="1">
          <mxGeometry x="410" y="335" width="80" height="35" as="geometry" />
        </mxCell>
        <mxCell id="-oswrm9NzoSEgWR_AtZv-5" value="url&lt;br&gt;&lt;span style=&quot;font-size: 8px&quot;&gt;VARCHAR(200)&lt;/span&gt;" style="rounded=0;whiteSpace=wrap;html=1;shadow=1;fontSize=12;fillColor=#f5f5f5;strokeColor=#666666;fontColor=#333333;fontStyle=2" parent="1" vertex="1">
          <mxGeometry x="490" y="335" width="80" height="35" as="geometry" />
        </mxCell>
        <mxCell id="-oswrm9NzoSEgWR_AtZv-6" value="user_id&lt;br&gt;&lt;span style=&quot;font-size: 8px&quot;&gt;INTEGER&lt;/span&gt;" style="rounded=0;whiteSpace=wrap;html=1;shadow=1;fontSize=12;fillColor=#f5f5f5;strokeColor=#666666;fontColor=#333333;fontStyle=2" parent="1" vertex="1">
          <mxGeometry x="570" y="335" width="80" height="35" as="geometry" />
        </mxCell>
        <mxCell id="-oswrm9NzoSEgWR_AtZv-7" value="1" style="rounded=0;whiteSpace=wrap;html=1;shadow=1;fontSize=12;fontStyle=0" parent="1" vertex="1">
          <mxGeometry x="410" y="370" width="80" height="25" as="geometry" />
        </mxCell>
        <mxCell id="-oswrm9NzoSEgWR_AtZv-8" value="http://img1.jpg" style="rounded=0;whiteSpace=wrap;html=1;shadow=1;fontSize=12;fontStyle=0" parent="1" vertex="1">
          <mxGeometry x="490" y="370" width="80" height="25" as="geometry" />
        </mxCell>
        <mxCell id="-oswrm9NzoSEgWR_AtZv-9" style="edgeStyle=orthogonalEdgeStyle;rounded=0;orthogonalLoop=1;jettySize=auto;html=1;exitX=1;exitY=0.5;exitDx=0;exitDy=0;entryX=0;entryY=0.5;entryDx=0;entryDy=0;startArrow=none;startFill=0;strokeWidth=1;fontSize=21;" parent="1" source="-oswrm9NzoSEgWR_AtZv-10" target="-oswrm9NzoSEgWR_AtZv-36" edge="1">
          <mxGeometry relative="1" as="geometry" />
        </mxCell>
        <mxCell id="-oswrm9NzoSEgWR_AtZv-10" value="4" style="rounded=0;whiteSpace=wrap;html=1;shadow=1;fontSize=12;fontStyle=0" parent="1" vertex="1">
          <mxGeometry x="570" y="370" width="80" height="25" as="geometry" />
        </mxCell>
        <mxCell id="-oswrm9NzoSEgWR_AtZv-11" value="2" style="rounded=0;whiteSpace=wrap;html=1;shadow=1;fontSize=12;fontStyle=0" parent="1" vertex="1">
          <mxGeometry x="410" y="395" width="80" height="25" as="geometry" />
        </mxCell>
        <mxCell id="-oswrm9NzoSEgWR_AtZv-12" value="http://img2.jpg" style="rounded=0;whiteSpace=wrap;html=1;shadow=1;fontSize=12;fontStyle=0" parent="1" vertex="1">
          <mxGeometry x="490" y="395" width="80" height="25" as="geometry" />
        </mxCell>
        <mxCell id="-oswrm9NzoSEgWR_AtZv-13" style="edgeStyle=orthogonalEdgeStyle;rounded=0;orthogonalLoop=1;jettySize=auto;html=1;exitX=1;exitY=0.5;exitDx=0;exitDy=0;entryX=0;entryY=0.5;entryDx=0;entryDy=0;startArrow=none;startFill=0;strokeWidth=1;fontSize=21;" parent="1" source="-oswrm9NzoSEgWR_AtZv-14" target="-oswrm9NzoSEgWR_AtZv-36" edge="1">
          <mxGeometry relative="1" as="geometry" />
        </mxCell>
        <mxCell id="-oswrm9NzoSEgWR_AtZv-14" value="4" style="rounded=0;whiteSpace=wrap;html=1;shadow=1;fontSize=12;fontStyle=0" parent="1" vertex="1">
          <mxGeometry x="570" y="395" width="80" height="25" as="geometry" />
        </mxCell>
        <mxCell id="-oswrm9NzoSEgWR_AtZv-15" value="3" style="rounded=0;whiteSpace=wrap;html=1;shadow=1;fontSize=12;fontStyle=0" parent="1" vertex="1">
          <mxGeometry x="410" y="420" width="80" height="25" as="geometry" />
        </mxCell>
        <mxCell id="-oswrm9NzoSEgWR_AtZv-16" value="http://img3.jpg" style="rounded=0;whiteSpace=wrap;html=1;shadow=1;fontSize=12;fontStyle=0" parent="1" vertex="1">
          <mxGeometry x="490" y="420" width="80" height="25" as="geometry" />
        </mxCell>
        <mxCell id="-oswrm9NzoSEgWR_AtZv-17" style="edgeStyle=orthogonalEdgeStyle;rounded=0;orthogonalLoop=1;jettySize=auto;html=1;exitX=1;exitY=0.5;exitDx=0;exitDy=0;entryX=0;entryY=0.5;entryDx=0;entryDy=0;startArrow=none;startFill=0;strokeWidth=1;fontSize=21;" parent="1" source="-oswrm9NzoSEgWR_AtZv-18" target="-oswrm9NzoSEgWR_AtZv-27" edge="1">
          <mxGeometry relative="1" as="geometry">
            <Array as="points">
              <mxPoint x="730" y="433" />
              <mxPoint x="730" y="383" />
            </Array>
          </mxGeometry>
        </mxCell>
        <mxCell id="-oswrm9NzoSEgWR_AtZv-18" value="1" style="rounded=0;whiteSpace=wrap;html=1;shadow=1;fontSize=12;fontStyle=0" parent="1" vertex="1">
          <mxGeometry x="570" y="420" width="80" height="25" as="geometry" />
        </mxCell>
        <mxCell id="-oswrm9NzoSEgWR_AtZv-19" value="4" style="rounded=0;whiteSpace=wrap;html=1;shadow=1;fontSize=12;fontStyle=0" parent="1" vertex="1">
          <mxGeometry x="410" y="445" width="80" height="25" as="geometry" />
        </mxCell>
        <mxCell id="-oswrm9NzoSEgWR_AtZv-20" value="http://img4.jpg" style="rounded=0;whiteSpace=wrap;html=1;shadow=1;fontSize=12;fontStyle=0" parent="1" vertex="1">
          <mxGeometry x="490" y="445" width="80" height="25" as="geometry" />
        </mxCell>
        <mxCell id="-oswrm9NzoSEgWR_AtZv-21" style="edgeStyle=orthogonalEdgeStyle;rounded=0;orthogonalLoop=1;jettySize=auto;html=1;exitX=1;exitY=0.5;exitDx=0;exitDy=0;entryX=0;entryY=0.5;entryDx=0;entryDy=0;startArrow=none;startFill=0;strokeWidth=1;fontSize=21;" parent="1" source="-oswrm9NzoSEgWR_AtZv-22" target="-oswrm9NzoSEgWR_AtZv-30" edge="1">
          <mxGeometry relative="1" as="geometry">
            <Array as="points">
              <mxPoint x="740" y="458" />
              <mxPoint x="740" y="408" />
            </Array>
          </mxGeometry>
        </mxCell>
        <mxCell id="-oswrm9NzoSEgWR_AtZv-22" value="2" style="rounded=0;whiteSpace=wrap;html=1;shadow=1;fontSize=12;fontStyle=0" parent="1" vertex="1">
          <mxGeometry x="570" y="445" width="80" height="25" as="geometry" />
        </mxCell>
        <mxCell id="-oswrm9NzoSEgWR_AtZv-23" value="users" style="rounded=0;whiteSpace=wrap;html=1;shadow=1;fontSize=20;fillColor=#ffe6cc;strokeColor=#d79b00;" parent="1" vertex="1">
          <mxGeometry x="750" y="310" width="310" height="25" as="geometry" />
        </mxCell>
        <mxCell id="-oswrm9NzoSEgWR_AtZv-24" value="id&lt;br&gt;&lt;font style=&quot;font-size: 8px&quot;&gt;INTEGER&lt;/font&gt;" style="rounded=0;whiteSpace=wrap;html=1;shadow=1;fontSize=12;fillColor=#f5f5f5;strokeColor=#666666;fontColor=#333333;fontStyle=2" parent="1" vertex="1">
          <mxGeometry x="750" y="335" width="80" height="35" as="geometry" />
        </mxCell>
        <mxCell id="-oswrm9NzoSEgWR_AtZv-25" value="username&lt;br&gt;&lt;span style=&quot;font-size: 8px&quot;&gt;VARCHAR(50)&lt;/span&gt;" style="rounded=0;whiteSpace=wrap;html=1;shadow=1;fontSize=12;fillColor=#f5f5f5;strokeColor=#666666;fontColor=#333333;fontStyle=2" parent="1" vertex="1">
          <mxGeometry x="830" y="335" width="80" height="35" as="geometry" />
        </mxCell>
        <mxCell id="-oswrm9NzoSEgWR_AtZv-26" value="email&lt;br&gt;&lt;span style=&quot;font-size: 8px&quot;&gt;VARCHAR(50)&lt;/span&gt;" style="rounded=0;whiteSpace=wrap;html=1;shadow=1;fontSize=12;fillColor=#f5f5f5;strokeColor=#666666;fontColor=#333333;fontStyle=2" parent="1" vertex="1">
          <mxGeometry x="910" y="335" width="150" height="35" as="geometry" />
        </mxCell>
        <mxCell id="-oswrm9NzoSEgWR_AtZv-27" value="1" style="rounded=0;whiteSpace=wrap;html=1;shadow=1;fontSize=12;fontStyle=0" parent="1" vertex="1">
          <mxGeometry x="750" y="370" width="80" height="25" as="geometry" />
        </mxCell>
        <mxCell id="-oswrm9NzoSEgWR_AtZv-28" value="monahan93" style="rounded=0;whiteSpace=wrap;html=1;shadow=1;fontSize=12;fontStyle=0" parent="1" vertex="1">
          <mxGeometry x="830" y="370" width="80" height="25" as="geometry" />
        </mxCell>
        <mxCell id="-oswrm9NzoSEgWR_AtZv-29" value="emery.becker@yahoo.com" style="rounded=0;whiteSpace=wrap;html=1;shadow=1;fontSize=12;fontStyle=0" parent="1" vertex="1">
          <mxGeometry x="910" y="370" width="150" height="25" as="geometry" />
        </mxCell>
        <mxCell id="-oswrm9NzoSEgWR_AtZv-30" value="2" style="rounded=0;whiteSpace=wrap;html=1;shadow=1;fontSize=12;fontStyle=0" parent="1" vertex="1">
          <mxGeometry x="750" y="395" width="80" height="25" as="geometry" />
        </mxCell>
        <mxCell id="-oswrm9NzoSEgWR_AtZv-31" value="pfeffer" style="rounded=0;whiteSpace=wrap;html=1;shadow=1;fontSize=12;fontStyle=0" parent="1" vertex="1">
          <mxGeometry x="830" y="395" width="80" height="25" as="geometry" />
        </mxCell>
        <mxCell id="-oswrm9NzoSEgWR_AtZv-32" value="lesly88@hotmail.com" style="rounded=0;whiteSpace=wrap;html=1;shadow=1;fontSize=12;fontStyle=0" parent="1" vertex="1">
          <mxGeometry x="910" y="395" width="150" height="25" as="geometry" />
        </mxCell>
        <mxCell id="-oswrm9NzoSEgWR_AtZv-33" value="3" style="rounded=0;whiteSpace=wrap;html=1;shadow=1;fontSize=12;fontStyle=0" parent="1" vertex="1">
          <mxGeometry x="750" y="420" width="80" height="25" as="geometry" />
        </mxCell>
        <mxCell id="-oswrm9NzoSEgWR_AtZv-34" value="99stroman" style="rounded=0;whiteSpace=wrap;html=1;shadow=1;fontSize=12;fontStyle=0" parent="1" vertex="1">
          <mxGeometry x="830" y="420" width="80" height="25" as="geometry" />
        </mxCell>
        <mxCell id="-oswrm9NzoSEgWR_AtZv-35" value="blaze68@hotmail.com" style="rounded=0;whiteSpace=wrap;html=1;shadow=1;fontSize=12;fontStyle=0" parent="1" vertex="1">
          <mxGeometry x="910" y="420" width="150" height="25" as="geometry" />
        </mxCell>
        <mxCell id="-oswrm9NzoSEgWR_AtZv-36" value="4" style="rounded=0;whiteSpace=wrap;html=1;shadow=1;fontSize=12;fontStyle=0" parent="1" vertex="1">
          <mxGeometry x="750" y="445" width="80" height="25" as="geometry" />
        </mxCell>
        <mxCell id="-oswrm9NzoSEgWR_AtZv-37" value="sim3onis" style="rounded=0;whiteSpace=wrap;html=1;shadow=1;fontSize=12;fontStyle=0" parent="1" vertex="1">
          <mxGeometry x="830" y="445" width="80" height="25" as="geometry" />
        </mxCell>
        <mxCell id="-oswrm9NzoSEgWR_AtZv-38" value="nedra1@yahoo.com" style="rounded=0;whiteSpace=wrap;html=1;shadow=1;fontSize=12;fontStyle=0" parent="1" vertex="1">
          <mxGeometry x="910" y="445" width="150" height="25" as="geometry" />
        </mxCell>
        <mxCell id="-oswrm9NzoSEgWR_AtZv-39" value="" style="shape=curlyBracket;whiteSpace=wrap;html=1;rounded=1;strokeWidth=1;fontSize=15;rotation=-90;fillColor=#f8cecc;strokeColor=#b85450;" parent="1" vertex="1">
          <mxGeometry x="432.5" y="451.5" width="35" height="80" as="geometry" />
        </mxCell>
        <mxCell id="-oswrm9NzoSEgWR_AtZv-40" value="Primary Key" style="rounded=0;whiteSpace=wrap;html=1;strokeWidth=1;fontSize=15;fillColor=#f8cecc;strokeColor=#b85450;fontStyle=1" parent="1" vertex="1">
          <mxGeometry x="385" y="510" width="130" height="30" as="geometry" />
        </mxCell>
        <mxCell id="-oswrm9NzoSEgWR_AtZv-41" value="Uniquely identifies this record in this table" style="text;html=1;strokeColor=none;fillColor=none;align=center;verticalAlign=middle;whiteSpace=wrap;rounded=0;fontSize=12;fontStyle=2" parent="1" vertex="1">
          <mxGeometry x="385" y="539" width="130" height="40" as="geometry" />
        </mxCell>
        <mxCell id="-oswrm9NzoSEgWR_AtZv-42" value="" style="shape=curlyBracket;whiteSpace=wrap;html=1;rounded=1;strokeWidth=1;fontSize=15;rotation=-90;fillColor=#f8cecc;strokeColor=#b85450;" parent="1" vertex="1">
          <mxGeometry x="592.5" y="451.5" width="35" height="80" as="geometry" />
        </mxCell>
        <mxCell id="-oswrm9NzoSEgWR_AtZv-43" value="Foreign Key" style="rounded=0;whiteSpace=wrap;html=1;strokeWidth=1;fontSize=15;fillColor=#f8cecc;strokeColor=#b85450;fontStyle=1" parent="1" vertex="1">
          <mxGeometry x="545" y="510" width="130" height="30" as="geometry" />
        </mxCell>
        <mxCell id="-oswrm9NzoSEgWR_AtZv-44" value="Identifies a record (usually in another table) that this row is associated with" style="text;html=1;strokeColor=none;fillColor=none;align=center;verticalAlign=middle;whiteSpace=wrap;rounded=0;fontSize=12;fontStyle=2" parent="1" vertex="1">
          <mxGeometry x="545" y="539" width="130" height="61" as="geometry" />
        </mxCell>
        <mxCell id="-oswrm9NzoSEgWR_AtZv-45" value="" style="shape=curlyBracket;whiteSpace=wrap;html=1;rounded=1;strokeWidth=1;fontSize=15;rotation=-90;fillColor=#f8cecc;strokeColor=#b85450;" parent="1" vertex="1">
          <mxGeometry x="772.5" y="451.5" width="35" height="80" as="geometry" />
        </mxCell>
        <mxCell id="-oswrm9NzoSEgWR_AtZv-46" value="Primary Key" style="rounded=0;whiteSpace=wrap;html=1;strokeWidth=1;fontSize=15;fillColor=#f8cecc;strokeColor=#b85450;fontStyle=1" parent="1" vertex="1">
          <mxGeometry x="725" y="510" width="130" height="30" as="geometry" />
        </mxCell>
        <mxCell id="-oswrm9NzoSEgWR_AtZv-47" value="Uniquely identifies this record in this table" style="text;html=1;strokeColor=none;fillColor=none;align=center;verticalAlign=middle;whiteSpace=wrap;rounded=0;fontSize=12;fontStyle=2" parent="1" vertex="1">
          <mxGeometry x="725" y="539" width="130" height="40" as="geometry" />
        </mxCell>
      </root>
    </mxGraphModel>
  </diagram>
  <diagram id="ko600i4A7XCHUcrl9jfR" name="02 - db">
    <mxGraphModel dx="858" dy="529" grid="1" gridSize="10" guides="1" tooltips="1" connect="1" arrows="1" fold="1" page="1" pageScale="1" pageWidth="1920" pageHeight="1200" math="0" shadow="0">
      <root>
        <mxCell id="LrCP_Gx4Q4OJFo32lzg2-0" />
        <mxCell id="LrCP_Gx4Q4OJFo32lzg2-1" parent="LrCP_Gx4Q4OJFo32lzg2-0" />
        <mxCell id="LrCP_Gx4Q4OJFo32lzg2-2" value="Database For a Photo-Sharing App" style="rounded=0;whiteSpace=wrap;html=1;shadow=1;fontSize=22;fillColor=#d5e8d4;strokeColor=#82b366;" vertex="1" parent="LrCP_Gx4Q4OJFo32lzg2-1">
          <mxGeometry x="510" y="260" width="400" height="40" as="geometry" />
        </mxCell>
        <mxCell id="LrCP_Gx4Q4OJFo32lzg2-3" value="" style="rounded=0;whiteSpace=wrap;html=1;shadow=1;fontSize=22;fillColor=#d5e8d4;strokeColor=#82b366;" vertex="1" parent="LrCP_Gx4Q4OJFo32lzg2-1">
          <mxGeometry x="510" y="300" width="400" height="230" as="geometry" />
        </mxCell>
        <mxCell id="LrCP_Gx4Q4OJFo32lzg2-4" style="edgeStyle=orthogonalEdgeStyle;rounded=0;orthogonalLoop=1;jettySize=auto;html=1;exitX=1;exitY=0.25;exitDx=0;exitDy=0;entryX=0;entryY=0.25;entryDx=0;entryDy=0;fontSize=15;" edge="1" parent="LrCP_Gx4Q4OJFo32lzg2-1" source="LrCP_Gx4Q4OJFo32lzg2-7" target="LrCP_Gx4Q4OJFo32lzg2-10">
          <mxGeometry relative="1" as="geometry" />
        </mxCell>
        <mxCell id="LrCP_Gx4Q4OJFo32lzg2-5" style="edgeStyle=orthogonalEdgeStyle;rounded=0;orthogonalLoop=1;jettySize=auto;html=1;exitX=0.25;exitY=1;exitDx=0;exitDy=0;entryX=0.25;entryY=0;entryDx=0;entryDy=0;fontSize=15;" edge="1" parent="LrCP_Gx4Q4OJFo32lzg2-1" source="LrCP_Gx4Q4OJFo32lzg2-7" target="LrCP_Gx4Q4OJFo32lzg2-11">
          <mxGeometry relative="1" as="geometry" />
        </mxCell>
        <mxCell id="LrCP_Gx4Q4OJFo32lzg2-6" style="edgeStyle=orthogonalEdgeStyle;rounded=0;orthogonalLoop=1;jettySize=auto;html=1;exitX=1;exitY=0.75;exitDx=0;exitDy=0;entryX=0.25;entryY=0;entryDx=0;entryDy=0;fontSize=15;" edge="1" parent="LrCP_Gx4Q4OJFo32lzg2-1" source="LrCP_Gx4Q4OJFo32lzg2-7" target="LrCP_Gx4Q4OJFo32lzg2-12">
          <mxGeometry relative="1" as="geometry">
            <Array as="points">
              <mxPoint x="670" y="400" />
              <mxPoint x="787" y="400" />
            </Array>
          </mxGeometry>
        </mxCell>
        <mxCell id="LrCP_Gx4Q4OJFo32lzg2-7" value="users" style="rounded=0;whiteSpace=wrap;html=1;shadow=1;fontSize=20;fillColor=#ffe6cc;strokeColor=#d79b00;" vertex="1" parent="LrCP_Gx4Q4OJFo32lzg2-1">
          <mxGeometry x="522" y="310" width="148" height="70" as="geometry" />
        </mxCell>
        <mxCell id="LrCP_Gx4Q4OJFo32lzg2-8" style="edgeStyle=orthogonalEdgeStyle;rounded=0;orthogonalLoop=1;jettySize=auto;html=1;exitX=0.75;exitY=1;exitDx=0;exitDy=0;entryX=0.75;entryY=0;entryDx=0;entryDy=0;fontSize=15;" edge="1" parent="LrCP_Gx4Q4OJFo32lzg2-1" source="LrCP_Gx4Q4OJFo32lzg2-10" target="LrCP_Gx4Q4OJFo32lzg2-12">
          <mxGeometry relative="1" as="geometry" />
        </mxCell>
        <mxCell id="LrCP_Gx4Q4OJFo32lzg2-9" style="edgeStyle=orthogonalEdgeStyle;rounded=0;orthogonalLoop=1;jettySize=auto;html=1;exitX=0;exitY=0.75;exitDx=0;exitDy=0;entryX=0.75;entryY=0;entryDx=0;entryDy=0;fontSize=15;" edge="1" parent="LrCP_Gx4Q4OJFo32lzg2-1" source="LrCP_Gx4Q4OJFo32lzg2-10" target="LrCP_Gx4Q4OJFo32lzg2-11">
          <mxGeometry relative="1" as="geometry">
            <Array as="points">
              <mxPoint x="750" y="410" />
              <mxPoint x="633" y="410" />
            </Array>
          </mxGeometry>
        </mxCell>
        <mxCell id="LrCP_Gx4Q4OJFo32lzg2-10" value="photos" style="rounded=0;whiteSpace=wrap;html=1;shadow=1;fontSize=20;fillColor=#ffe6cc;strokeColor=#d79b00;" vertex="1" parent="LrCP_Gx4Q4OJFo32lzg2-1">
          <mxGeometry x="750" y="310" width="148" height="70" as="geometry" />
        </mxCell>
        <mxCell id="LrCP_Gx4Q4OJFo32lzg2-11" value="comments" style="rounded=0;whiteSpace=wrap;html=1;shadow=1;fontSize=20;fillColor=#ffe6cc;strokeColor=#d79b00;" vertex="1" parent="LrCP_Gx4Q4OJFo32lzg2-1">
          <mxGeometry x="522" y="440" width="148" height="70" as="geometry" />
        </mxCell>
        <mxCell id="LrCP_Gx4Q4OJFo32lzg2-12" value="likes" style="rounded=0;whiteSpace=wrap;html=1;shadow=1;fontSize=20;fillColor=#ffe6cc;strokeColor=#d79b00;" vertex="1" parent="LrCP_Gx4Q4OJFo32lzg2-1">
          <mxGeometry x="750" y="440" width="148" height="70" as="geometry" />
        </mxCell>
        <mxCell id="J6J3mkRKLV_I49ikV7l8-3" style="edgeStyle=orthogonalEdgeStyle;rounded=0;orthogonalLoop=1;jettySize=auto;html=1;exitX=0.5;exitY=1;exitDx=0;exitDy=0;" edge="1" parent="LrCP_Gx4Q4OJFo32lzg2-1" source="J6J3mkRKLV_I49ikV7l8-0" target="J6J3mkRKLV_I49ikV7l8-2">
          <mxGeometry relative="1" as="geometry" />
        </mxCell>
        <mxCell id="J6J3mkRKLV_I49ikV7l8-0" value="Comments have one photo" style="rounded=0;whiteSpace=wrap;html=1;shadow=1;fontSize=20;fillColor=#f8cecc;strokeColor=#b85450;fontStyle=1" vertex="1" parent="LrCP_Gx4Q4OJFo32lzg2-1">
          <mxGeometry x="960" y="220" width="284" height="40" as="geometry" />
        </mxCell>
        <mxCell id="J6J3mkRKLV_I49ikV7l8-1" value="Comments have one user" style="rounded=0;whiteSpace=wrap;html=1;shadow=1;fontSize=20;fillColor=#f8cecc;strokeColor=#b85450;fontStyle=1" vertex="1" parent="LrCP_Gx4Q4OJFo32lzg2-1">
          <mxGeometry x="960" y="420" width="284" height="40" as="geometry" />
        </mxCell>
        <mxCell id="J6J3mkRKLV_I49ikV7l8-2" value="Comments table should get a foreign key column &lt;b&gt;pointing at the photo&lt;/b&gt; each comment belongs to" style="rounded=0;whiteSpace=wrap;html=1;shadow=1;fontSize=18;fillColor=#dae8fc;strokeColor=#6c8ebf;fontStyle=0" vertex="1" parent="LrCP_Gx4Q4OJFo32lzg2-1">
          <mxGeometry x="960" y="290" width="284" height="90" as="geometry" />
        </mxCell>
        <mxCell id="J6J3mkRKLV_I49ikV7l8-4" style="edgeStyle=orthogonalEdgeStyle;rounded=0;orthogonalLoop=1;jettySize=auto;html=1;exitX=0.5;exitY=1;exitDx=0;exitDy=0;" edge="1" parent="LrCP_Gx4Q4OJFo32lzg2-1" target="J6J3mkRKLV_I49ikV7l8-5">
          <mxGeometry relative="1" as="geometry">
            <mxPoint x="1102" y="460" as="sourcePoint" />
          </mxGeometry>
        </mxCell>
        <mxCell id="J6J3mkRKLV_I49ikV7l8-5" value="Comments table should get a foreign key column &lt;b&gt;pointing&lt;/b&gt; &lt;b&gt;at the user&lt;/b&gt; each comment belongs to" style="rounded=0;whiteSpace=wrap;html=1;shadow=1;fontSize=18;fillColor=#dae8fc;strokeColor=#6c8ebf;fontStyle=0" vertex="1" parent="LrCP_Gx4Q4OJFo32lzg2-1">
          <mxGeometry x="960" y="490" width="284" height="90" as="geometry" />
        </mxCell>
      </root>
    </mxGraphModel>
  </diagram>
  <diagram id="3QDeLt3RZKNwbUUMMwgR" name="03 - photoscomments">
    <mxGraphModel dx="782" dy="721" grid="1" gridSize="10" guides="1" tooltips="1" connect="1" arrows="1" fold="1" page="1" pageScale="1" pageWidth="1920" pageHeight="1200" math="0" shadow="0">
      <root>
        <mxCell id="UUy0M_aFTO-AFNwR7G5c-0" />
        <mxCell id="UUy0M_aFTO-AFNwR7G5c-1" parent="UUy0M_aFTO-AFNwR7G5c-0" />
        <mxCell id="qzHrnP7fyJp1djn9mlQj-0" value="Database" style="rounded=0;whiteSpace=wrap;html=1;shadow=1;fontSize=22;fillColor=#d5e8d4;strokeColor=#82b366;" parent="UUy0M_aFTO-AFNwR7G5c-1" vertex="1">
          <mxGeometry x="400" y="260" width="750" height="30" as="geometry" />
        </mxCell>
        <mxCell id="qzHrnP7fyJp1djn9mlQj-1" value="" style="rounded=0;whiteSpace=wrap;html=1;shadow=1;fontSize=22;fillColor=#d5e8d4;strokeColor=#82b366;" parent="UUy0M_aFTO-AFNwR7G5c-1" vertex="1">
          <mxGeometry x="400" y="290" width="750" height="390" as="geometry" />
        </mxCell>
        <mxCell id="qzHrnP7fyJp1djn9mlQj-2" value="comments" style="rounded=0;whiteSpace=wrap;html=1;shadow=1;fontSize=20;fillColor=#ffe6cc;strokeColor=#d79b00;" parent="UUy0M_aFTO-AFNwR7G5c-1" vertex="1">
          <mxGeometry x="410" y="390" width="320" height="25" as="geometry" />
        </mxCell>
        <mxCell id="qzHrnP7fyJp1djn9mlQj-3" value="id&lt;br&gt;&lt;font style=&quot;font-size: 8px&quot;&gt;INTEGER&lt;/font&gt;" style="rounded=0;whiteSpace=wrap;html=1;shadow=1;fontSize=12;fillColor=#f5f5f5;strokeColor=#666666;fontColor=#333333;fontStyle=2" parent="UUy0M_aFTO-AFNwR7G5c-1" vertex="1">
          <mxGeometry x="410" y="415" width="80" height="35" as="geometry" />
        </mxCell>
        <mxCell id="qzHrnP7fyJp1djn9mlQj-4" value="text&lt;br&gt;&lt;span style=&quot;font-size: 8px&quot;&gt;VARCHAR(200)&lt;/span&gt;" style="rounded=0;whiteSpace=wrap;html=1;shadow=1;fontSize=12;fillColor=#f5f5f5;strokeColor=#666666;fontColor=#333333;fontStyle=2" parent="UUy0M_aFTO-AFNwR7G5c-1" vertex="1">
          <mxGeometry x="490" y="415" width="80" height="35" as="geometry" />
        </mxCell>
        <mxCell id="qzHrnP7fyJp1djn9mlQj-5" value="user_id&lt;br&gt;&lt;span style=&quot;font-size: 8px&quot;&gt;INTEGER&lt;/span&gt;" style="rounded=0;whiteSpace=wrap;html=1;shadow=1;fontSize=12;fillColor=#f5f5f5;strokeColor=#666666;fontColor=#333333;fontStyle=2" parent="UUy0M_aFTO-AFNwR7G5c-1" vertex="1">
          <mxGeometry x="570" y="415" width="80" height="35" as="geometry" />
        </mxCell>
        <mxCell id="qzHrnP7fyJp1djn9mlQj-6" value="1" style="rounded=0;whiteSpace=wrap;html=1;shadow=1;fontSize=12;fontStyle=0" parent="UUy0M_aFTO-AFNwR7G5c-1" vertex="1">
          <mxGeometry x="410" y="450" width="80" height="25" as="geometry" />
        </mxCell>
        <mxCell id="qzHrnP7fyJp1djn9mlQj-7" value="cool pic" style="rounded=0;whiteSpace=wrap;html=1;shadow=1;fontSize=12;fontStyle=0" parent="UUy0M_aFTO-AFNwR7G5c-1" vertex="1">
          <mxGeometry x="490" y="450" width="80" height="25" as="geometry" />
        </mxCell>
        <mxCell id="qzHrnP7fyJp1djn9mlQj-9" value="4" style="rounded=0;whiteSpace=wrap;html=1;shadow=1;fontSize=12;fontStyle=0" parent="UUy0M_aFTO-AFNwR7G5c-1" vertex="1">
          <mxGeometry x="570" y="450" width="80" height="25" as="geometry" />
        </mxCell>
        <mxCell id="qzHrnP7fyJp1djn9mlQj-10" value="2" style="rounded=0;whiteSpace=wrap;html=1;shadow=1;fontSize=12;fontStyle=0" parent="UUy0M_aFTO-AFNwR7G5c-1" vertex="1">
          <mxGeometry x="410" y="475" width="80" height="25" as="geometry" />
        </mxCell>
        <mxCell id="qzHrnP7fyJp1djn9mlQj-11" value="neato" style="rounded=0;whiteSpace=wrap;html=1;shadow=1;fontSize=12;fontStyle=0" parent="UUy0M_aFTO-AFNwR7G5c-1" vertex="1">
          <mxGeometry x="490" y="475" width="80" height="25" as="geometry" />
        </mxCell>
        <mxCell id="qzHrnP7fyJp1djn9mlQj-13" value="4" style="rounded=0;whiteSpace=wrap;html=1;shadow=1;fontSize=12;fontStyle=0" parent="UUy0M_aFTO-AFNwR7G5c-1" vertex="1">
          <mxGeometry x="570" y="475" width="80" height="25" as="geometry" />
        </mxCell>
        <mxCell id="qzHrnP7fyJp1djn9mlQj-14" value="3" style="rounded=0;whiteSpace=wrap;html=1;shadow=1;fontSize=12;fontStyle=0" parent="UUy0M_aFTO-AFNwR7G5c-1" vertex="1">
          <mxGeometry x="410" y="500" width="80" height="25" as="geometry" />
        </mxCell>
        <mxCell id="qzHrnP7fyJp1djn9mlQj-15" value="I like it" style="rounded=0;whiteSpace=wrap;html=1;shadow=1;fontSize=12;fontStyle=0" parent="UUy0M_aFTO-AFNwR7G5c-1" vertex="1">
          <mxGeometry x="490" y="500" width="80" height="25" as="geometry" />
        </mxCell>
        <mxCell id="qzHrnP7fyJp1djn9mlQj-17" value="1" style="rounded=0;whiteSpace=wrap;html=1;shadow=1;fontSize=12;fontStyle=0" parent="UUy0M_aFTO-AFNwR7G5c-1" vertex="1">
          <mxGeometry x="570" y="500" width="80" height="25" as="geometry" />
        </mxCell>
        <mxCell id="qzHrnP7fyJp1djn9mlQj-18" value="4" style="rounded=0;whiteSpace=wrap;html=1;shadow=1;fontSize=12;fontStyle=0" parent="UUy0M_aFTO-AFNwR7G5c-1" vertex="1">
          <mxGeometry x="410" y="525" width="80" height="25" as="geometry" />
        </mxCell>
        <mxCell id="qzHrnP7fyJp1djn9mlQj-19" value="fantastic!" style="rounded=0;whiteSpace=wrap;html=1;shadow=1;fontSize=12;fontStyle=0" parent="UUy0M_aFTO-AFNwR7G5c-1" vertex="1">
          <mxGeometry x="490" y="525" width="80" height="25" as="geometry" />
        </mxCell>
        <mxCell id="mO4TqPyH-GaBL7QF-bx8-0" style="edgeStyle=orthogonalEdgeStyle;rounded=0;orthogonalLoop=1;jettySize=auto;html=1;exitX=0.5;exitY=1;exitDx=0;exitDy=0;entryX=0;entryY=0.5;entryDx=0;entryDy=0;fontSize=18;" parent="UUy0M_aFTO-AFNwR7G5c-1" source="qzHrnP7fyJp1djn9mlQj-21" target="9LOWG1_QdoBWGaFyBp5--4" edge="1">
          <mxGeometry relative="1" as="geometry" />
        </mxCell>
        <mxCell id="qzHrnP7fyJp1djn9mlQj-21" value="1" style="rounded=0;whiteSpace=wrap;html=1;shadow=1;fontSize=12;fontStyle=0" parent="UUy0M_aFTO-AFNwR7G5c-1" vertex="1">
          <mxGeometry x="570" y="525" width="80" height="25" as="geometry" />
        </mxCell>
        <mxCell id="B2YQEr3LJjdzv-sj2xpX-0" value="photos" style="rounded=0;whiteSpace=wrap;html=1;shadow=1;fontSize=20;fillColor=#ffe6cc;strokeColor=#d79b00;" parent="UUy0M_aFTO-AFNwR7G5c-1" vertex="1">
          <mxGeometry x="830" y="315" width="240" height="25" as="geometry" />
        </mxCell>
        <mxCell id="B2YQEr3LJjdzv-sj2xpX-1" value="id&lt;br&gt;&lt;font style=&quot;font-size: 8px&quot;&gt;INTEGER&lt;/font&gt;" style="rounded=0;whiteSpace=wrap;html=1;shadow=1;fontSize=12;fillColor=#f5f5f5;strokeColor=#666666;fontColor=#333333;fontStyle=2" parent="UUy0M_aFTO-AFNwR7G5c-1" vertex="1">
          <mxGeometry x="830" y="340" width="80" height="35" as="geometry" />
        </mxCell>
        <mxCell id="B2YQEr3LJjdzv-sj2xpX-2" value="url&lt;br&gt;&lt;span style=&quot;font-size: 8px&quot;&gt;VARCHAR(200)&lt;/span&gt;" style="rounded=0;whiteSpace=wrap;html=1;shadow=1;fontSize=12;fillColor=#f5f5f5;strokeColor=#666666;fontColor=#333333;fontStyle=2" parent="UUy0M_aFTO-AFNwR7G5c-1" vertex="1">
          <mxGeometry x="910" y="340" width="80" height="35" as="geometry" />
        </mxCell>
        <mxCell id="B2YQEr3LJjdzv-sj2xpX-3" value="user_id&lt;br&gt;&lt;span style=&quot;font-size: 8px&quot;&gt;INTEGER&lt;/span&gt;" style="rounded=0;whiteSpace=wrap;html=1;shadow=1;fontSize=12;fillColor=#f5f5f5;strokeColor=#666666;fontColor=#333333;fontStyle=2" parent="UUy0M_aFTO-AFNwR7G5c-1" vertex="1">
          <mxGeometry x="990" y="340" width="80" height="35" as="geometry" />
        </mxCell>
        <mxCell id="B2YQEr3LJjdzv-sj2xpX-4" value="1" style="rounded=0;whiteSpace=wrap;html=1;shadow=1;fontSize=12;fontStyle=0" parent="UUy0M_aFTO-AFNwR7G5c-1" vertex="1">
          <mxGeometry x="830" y="375" width="80" height="25" as="geometry" />
        </mxCell>
        <mxCell id="B2YQEr3LJjdzv-sj2xpX-5" value="http://img1.jpg" style="rounded=0;whiteSpace=wrap;html=1;shadow=1;fontSize=12;fontStyle=0" parent="UUy0M_aFTO-AFNwR7G5c-1" vertex="1">
          <mxGeometry x="910" y="375" width="80" height="25" as="geometry" />
        </mxCell>
        <mxCell id="B2YQEr3LJjdzv-sj2xpX-6" value="4" style="rounded=0;whiteSpace=wrap;html=1;shadow=1;fontSize=12;fontStyle=0" parent="UUy0M_aFTO-AFNwR7G5c-1" vertex="1">
          <mxGeometry x="990" y="375" width="80" height="25" as="geometry" />
        </mxCell>
        <mxCell id="B2YQEr3LJjdzv-sj2xpX-7" value="2" style="rounded=0;whiteSpace=wrap;html=1;shadow=1;fontSize=12;fontStyle=0" parent="UUy0M_aFTO-AFNwR7G5c-1" vertex="1">
          <mxGeometry x="830" y="400" width="80" height="25" as="geometry" />
        </mxCell>
        <mxCell id="B2YQEr3LJjdzv-sj2xpX-8" value="http://img2.jpg" style="rounded=0;whiteSpace=wrap;html=1;shadow=1;fontSize=12;fontStyle=0" parent="UUy0M_aFTO-AFNwR7G5c-1" vertex="1">
          <mxGeometry x="910" y="400" width="80" height="25" as="geometry" />
        </mxCell>
        <mxCell id="B2YQEr3LJjdzv-sj2xpX-9" value="4" style="rounded=0;whiteSpace=wrap;html=1;shadow=1;fontSize=12;fontStyle=0" parent="UUy0M_aFTO-AFNwR7G5c-1" vertex="1">
          <mxGeometry x="990" y="400" width="80" height="25" as="geometry" />
        </mxCell>
        <mxCell id="B2YQEr3LJjdzv-sj2xpX-10" value="3" style="rounded=0;whiteSpace=wrap;html=1;shadow=1;fontSize=12;fontStyle=0" parent="UUy0M_aFTO-AFNwR7G5c-1" vertex="1">
          <mxGeometry x="830" y="425" width="80" height="25" as="geometry" />
        </mxCell>
        <mxCell id="B2YQEr3LJjdzv-sj2xpX-11" value="http://img3.jpg" style="rounded=0;whiteSpace=wrap;html=1;shadow=1;fontSize=12;fontStyle=0" parent="UUy0M_aFTO-AFNwR7G5c-1" vertex="1">
          <mxGeometry x="910" y="425" width="80" height="25" as="geometry" />
        </mxCell>
        <mxCell id="B2YQEr3LJjdzv-sj2xpX-12" value="1" style="rounded=0;whiteSpace=wrap;html=1;shadow=1;fontSize=12;fontStyle=0" parent="UUy0M_aFTO-AFNwR7G5c-1" vertex="1">
          <mxGeometry x="990" y="425" width="80" height="25" as="geometry" />
        </mxCell>
        <mxCell id="B2YQEr3LJjdzv-sj2xpX-13" value="4" style="rounded=0;whiteSpace=wrap;html=1;shadow=1;fontSize=12;fontStyle=0" parent="UUy0M_aFTO-AFNwR7G5c-1" vertex="1">
          <mxGeometry x="830" y="450" width="80" height="25" as="geometry" />
        </mxCell>
        <mxCell id="B2YQEr3LJjdzv-sj2xpX-14" value="http://img4.jpg" style="rounded=0;whiteSpace=wrap;html=1;shadow=1;fontSize=12;fontStyle=0" parent="UUy0M_aFTO-AFNwR7G5c-1" vertex="1">
          <mxGeometry x="910" y="450" width="80" height="25" as="geometry" />
        </mxCell>
        <mxCell id="B2YQEr3LJjdzv-sj2xpX-15" value="2" style="rounded=0;whiteSpace=wrap;html=1;shadow=1;fontSize=12;fontStyle=0" parent="UUy0M_aFTO-AFNwR7G5c-1" vertex="1">
          <mxGeometry x="990" y="450" width="80" height="25" as="geometry" />
        </mxCell>
        <mxCell id="B2YQEr3LJjdzv-sj2xpX-16" value="photo_id&lt;br&gt;&lt;span style=&quot;font-size: 8px&quot;&gt;INTEGER&lt;/span&gt;" style="rounded=0;whiteSpace=wrap;html=1;shadow=1;fontSize=12;fillColor=#f5f5f5;strokeColor=#666666;fontColor=#333333;fontStyle=2" parent="UUy0M_aFTO-AFNwR7G5c-1" vertex="1">
          <mxGeometry x="650" y="415" width="80" height="35" as="geometry" />
        </mxCell>
        <mxCell id="B2YQEr3LJjdzv-sj2xpX-17" value="3" style="rounded=0;whiteSpace=wrap;html=1;shadow=1;fontSize=12;fontStyle=0" parent="UUy0M_aFTO-AFNwR7G5c-1" vertex="1">
          <mxGeometry x="650" y="450" width="80" height="25" as="geometry" />
        </mxCell>
        <mxCell id="B2YQEr3LJjdzv-sj2xpX-18" value="2" style="rounded=0;whiteSpace=wrap;html=1;shadow=1;fontSize=12;fontStyle=0" parent="UUy0M_aFTO-AFNwR7G5c-1" vertex="1">
          <mxGeometry x="650" y="475" width="80" height="25" as="geometry" />
        </mxCell>
        <mxCell id="B2YQEr3LJjdzv-sj2xpX-19" value="1" style="rounded=0;whiteSpace=wrap;html=1;shadow=1;fontSize=12;fontStyle=0" parent="UUy0M_aFTO-AFNwR7G5c-1" vertex="1">
          <mxGeometry x="650" y="500" width="80" height="25" as="geometry" />
        </mxCell>
        <mxCell id="MuOkygJONG8usp5w9PD5-5" style="edgeStyle=orthogonalEdgeStyle;rounded=0;orthogonalLoop=1;jettySize=auto;html=1;exitX=1;exitY=0.5;exitDx=0;exitDy=0;entryX=0;entryY=0.5;entryDx=0;entryDy=0;fontSize=18;" parent="UUy0M_aFTO-AFNwR7G5c-1" source="B2YQEr3LJjdzv-sj2xpX-20" target="B2YQEr3LJjdzv-sj2xpX-4" edge="1">
          <mxGeometry relative="1" as="geometry" />
        </mxCell>
        <mxCell id="B2YQEr3LJjdzv-sj2xpX-20" value="1" style="rounded=0;whiteSpace=wrap;html=1;shadow=1;fontSize=12;fontStyle=0" parent="UUy0M_aFTO-AFNwR7G5c-1" vertex="1">
          <mxGeometry x="650" y="525" width="80" height="25" as="geometry" />
        </mxCell>
        <mxCell id="9LOWG1_QdoBWGaFyBp5--0" value="users" style="rounded=0;whiteSpace=wrap;html=1;shadow=1;fontSize=20;fillColor=#ffe6cc;strokeColor=#d79b00;" parent="UUy0M_aFTO-AFNwR7G5c-1" vertex="1">
          <mxGeometry x="830" y="495" width="310" height="25" as="geometry" />
        </mxCell>
        <mxCell id="9LOWG1_QdoBWGaFyBp5--1" value="id&lt;br&gt;&lt;font style=&quot;font-size: 8px&quot;&gt;INTEGER&lt;/font&gt;" style="rounded=0;whiteSpace=wrap;html=1;shadow=1;fontSize=12;fillColor=#f5f5f5;strokeColor=#666666;fontColor=#333333;fontStyle=2" parent="UUy0M_aFTO-AFNwR7G5c-1" vertex="1">
          <mxGeometry x="830" y="520" width="80" height="35" as="geometry" />
        </mxCell>
        <mxCell id="9LOWG1_QdoBWGaFyBp5--2" value="username&lt;br&gt;&lt;span style=&quot;font-size: 8px&quot;&gt;VARCHAR(50)&lt;/span&gt;" style="rounded=0;whiteSpace=wrap;html=1;shadow=1;fontSize=12;fillColor=#f5f5f5;strokeColor=#666666;fontColor=#333333;fontStyle=2" parent="UUy0M_aFTO-AFNwR7G5c-1" vertex="1">
          <mxGeometry x="910" y="520" width="80" height="35" as="geometry" />
        </mxCell>
        <mxCell id="9LOWG1_QdoBWGaFyBp5--3" value="email&lt;br&gt;&lt;span style=&quot;font-size: 8px&quot;&gt;VARCHAR(50)&lt;/span&gt;" style="rounded=0;whiteSpace=wrap;html=1;shadow=1;fontSize=12;fillColor=#f5f5f5;strokeColor=#666666;fontColor=#333333;fontStyle=2" parent="UUy0M_aFTO-AFNwR7G5c-1" vertex="1">
          <mxGeometry x="990" y="520" width="150" height="35" as="geometry" />
        </mxCell>
        <mxCell id="9LOWG1_QdoBWGaFyBp5--4" value="1" style="rounded=0;whiteSpace=wrap;html=1;shadow=1;fontSize=12;fontStyle=0" parent="UUy0M_aFTO-AFNwR7G5c-1" vertex="1">
          <mxGeometry x="830" y="555" width="80" height="25" as="geometry" />
        </mxCell>
        <mxCell id="9LOWG1_QdoBWGaFyBp5--5" value="monahan93" style="rounded=0;whiteSpace=wrap;html=1;shadow=1;fontSize=12;fontStyle=0" parent="UUy0M_aFTO-AFNwR7G5c-1" vertex="1">
          <mxGeometry x="910" y="555" width="80" height="25" as="geometry" />
        </mxCell>
        <mxCell id="9LOWG1_QdoBWGaFyBp5--6" value="emery.becker@yahoo.com" style="rounded=0;whiteSpace=wrap;html=1;shadow=1;fontSize=12;fontStyle=0" parent="UUy0M_aFTO-AFNwR7G5c-1" vertex="1">
          <mxGeometry x="990" y="555" width="150" height="25" as="geometry" />
        </mxCell>
        <mxCell id="9LOWG1_QdoBWGaFyBp5--7" value="2" style="rounded=0;whiteSpace=wrap;html=1;shadow=1;fontSize=12;fontStyle=0" parent="UUy0M_aFTO-AFNwR7G5c-1" vertex="1">
          <mxGeometry x="830" y="580" width="80" height="25" as="geometry" />
        </mxCell>
        <mxCell id="9LOWG1_QdoBWGaFyBp5--8" value="pfeffer" style="rounded=0;whiteSpace=wrap;html=1;shadow=1;fontSize=12;fontStyle=0" parent="UUy0M_aFTO-AFNwR7G5c-1" vertex="1">
          <mxGeometry x="910" y="580" width="80" height="25" as="geometry" />
        </mxCell>
        <mxCell id="9LOWG1_QdoBWGaFyBp5--9" value="lesly88@hotmail.com" style="rounded=0;whiteSpace=wrap;html=1;shadow=1;fontSize=12;fontStyle=0" parent="UUy0M_aFTO-AFNwR7G5c-1" vertex="1">
          <mxGeometry x="990" y="580" width="150" height="25" as="geometry" />
        </mxCell>
        <mxCell id="9LOWG1_QdoBWGaFyBp5--10" value="3" style="rounded=0;whiteSpace=wrap;html=1;shadow=1;fontSize=12;fontStyle=0" parent="UUy0M_aFTO-AFNwR7G5c-1" vertex="1">
          <mxGeometry x="830" y="605" width="80" height="25" as="geometry" />
        </mxCell>
        <mxCell id="9LOWG1_QdoBWGaFyBp5--11" value="99stroman" style="rounded=0;whiteSpace=wrap;html=1;shadow=1;fontSize=12;fontStyle=0" parent="UUy0M_aFTO-AFNwR7G5c-1" vertex="1">
          <mxGeometry x="910" y="605" width="80" height="25" as="geometry" />
        </mxCell>
        <mxCell id="9LOWG1_QdoBWGaFyBp5--12" value="blaze68@hotmail.com" style="rounded=0;whiteSpace=wrap;html=1;shadow=1;fontSize=12;fontStyle=0" parent="UUy0M_aFTO-AFNwR7G5c-1" vertex="1">
          <mxGeometry x="990" y="605" width="150" height="25" as="geometry" />
        </mxCell>
        <mxCell id="9LOWG1_QdoBWGaFyBp5--13" value="4" style="rounded=0;whiteSpace=wrap;html=1;shadow=1;fontSize=12;fontStyle=0" parent="UUy0M_aFTO-AFNwR7G5c-1" vertex="1">
          <mxGeometry x="830" y="630" width="80" height="25" as="geometry" />
        </mxCell>
        <mxCell id="9LOWG1_QdoBWGaFyBp5--14" value="sim3onis" style="rounded=0;whiteSpace=wrap;html=1;shadow=1;fontSize=12;fontStyle=0" parent="UUy0M_aFTO-AFNwR7G5c-1" vertex="1">
          <mxGeometry x="910" y="630" width="80" height="25" as="geometry" />
        </mxCell>
        <mxCell id="9LOWG1_QdoBWGaFyBp5--15" value="nedra1@yahoo.com" style="rounded=0;whiteSpace=wrap;html=1;shadow=1;fontSize=12;fontStyle=0" parent="UUy0M_aFTO-AFNwR7G5c-1" vertex="1">
          <mxGeometry x="990" y="630" width="150" height="25" as="geometry" />
        </mxCell>
      </root>
    </mxGraphModel>
  </diagram>
  <diagram id="YDq7v5pfIuL1Uhao2Pc4" name="04 - One-to-many_foreign-key">
    <mxGraphModel dx="782" dy="721" grid="1" gridSize="10" guides="1" tooltips="1" connect="1" arrows="1" fold="1" page="1" pageScale="1" pageWidth="1920" pageHeight="1200" math="0" shadow="0">
      <root>
        <mxCell id="V6JTPzaAqQ7opR90GnSn-0" />
        <mxCell id="V6JTPzaAqQ7opR90GnSn-1" parent="V6JTPzaAqQ7opR90GnSn-0" />
        <mxCell id="V6JTPzaAqQ7opR90GnSn-2" value="Photo" style="rounded=0;whiteSpace=wrap;html=1;shadow=1;fontSize=20;fontStyle=0" parent="V6JTPzaAqQ7opR90GnSn-1" vertex="1">
          <mxGeometry x="470" y="290" width="120" height="40" as="geometry" />
        </mxCell>
        <mxCell id="V6JTPzaAqQ7opR90GnSn-3" style="edgeStyle=orthogonalEdgeStyle;rounded=0;orthogonalLoop=1;jettySize=auto;html=1;exitX=0;exitY=0.5;exitDx=0;exitDy=0;entryX=1;entryY=0.5;entryDx=0;entryDy=0;fontSize=18;" parent="V6JTPzaAqQ7opR90GnSn-1" source="V6JTPzaAqQ7opR90GnSn-4" target="V6JTPzaAqQ7opR90GnSn-2" edge="1">
          <mxGeometry relative="1" as="geometry" />
        </mxCell>
        <mxCell id="V6JTPzaAqQ7opR90GnSn-4" value="Comment #1" style="rounded=0;whiteSpace=wrap;html=1;shadow=1;fontSize=20;fontStyle=0;fillColor=#dae8fc;strokeColor=#6c8ebf;" parent="V6JTPzaAqQ7opR90GnSn-1" vertex="1">
          <mxGeometry x="630" y="240" width="120" height="40" as="geometry" />
        </mxCell>
        <mxCell id="V6JTPzaAqQ7opR90GnSn-5" style="edgeStyle=orthogonalEdgeStyle;rounded=0;orthogonalLoop=1;jettySize=auto;html=1;exitX=0;exitY=0.5;exitDx=0;exitDy=0;entryX=1;entryY=0.5;entryDx=0;entryDy=0;fontSize=18;" parent="V6JTPzaAqQ7opR90GnSn-1" source="V6JTPzaAqQ7opR90GnSn-6" target="V6JTPzaAqQ7opR90GnSn-2" edge="1">
          <mxGeometry relative="1" as="geometry" />
        </mxCell>
        <mxCell id="V6JTPzaAqQ7opR90GnSn-6" value="Comment #2" style="rounded=0;whiteSpace=wrap;html=1;shadow=1;fontSize=20;fontStyle=0;fillColor=#dae8fc;strokeColor=#6c8ebf;" parent="V6JTPzaAqQ7opR90GnSn-1" vertex="1">
          <mxGeometry x="630" y="290" width="120" height="40" as="geometry" />
        </mxCell>
        <mxCell id="V6JTPzaAqQ7opR90GnSn-7" style="edgeStyle=orthogonalEdgeStyle;rounded=0;orthogonalLoop=1;jettySize=auto;html=1;exitX=0;exitY=0.5;exitDx=0;exitDy=0;entryX=1;entryY=0.5;entryDx=0;entryDy=0;fontSize=18;" parent="V6JTPzaAqQ7opR90GnSn-1" source="V6JTPzaAqQ7opR90GnSn-8" target="V6JTPzaAqQ7opR90GnSn-2" edge="1">
          <mxGeometry relative="1" as="geometry" />
        </mxCell>
        <mxCell id="V6JTPzaAqQ7opR90GnSn-8" value="Comment #3" style="rounded=0;whiteSpace=wrap;html=1;shadow=1;fontSize=20;fontStyle=0;fillColor=#dae8fc;strokeColor=#6c8ebf;" parent="V6JTPzaAqQ7opR90GnSn-1" vertex="1">
          <mxGeometry x="630" y="340" width="120" height="40" as="geometry" />
        </mxCell>
        <mxCell id="V6JTPzaAqQ7opR90GnSn-9" value="User" style="rounded=0;whiteSpace=wrap;html=1;shadow=1;fontSize=20;fontStyle=0" parent="V6JTPzaAqQ7opR90GnSn-1" vertex="1">
          <mxGeometry x="840" y="290" width="120" height="40" as="geometry" />
        </mxCell>
        <mxCell id="V6JTPzaAqQ7opR90GnSn-10" style="edgeStyle=orthogonalEdgeStyle;rounded=0;orthogonalLoop=1;jettySize=auto;html=1;exitX=0;exitY=0.5;exitDx=0;exitDy=0;entryX=1;entryY=0.5;entryDx=0;entryDy=0;fontSize=18;" parent="V6JTPzaAqQ7opR90GnSn-1" source="V6JTPzaAqQ7opR90GnSn-11" target="V6JTPzaAqQ7opR90GnSn-9" edge="1">
          <mxGeometry relative="1" as="geometry" />
        </mxCell>
        <mxCell id="V6JTPzaAqQ7opR90GnSn-11" value="Comment #1" style="rounded=0;whiteSpace=wrap;html=1;shadow=1;fontSize=20;fontStyle=0;fillColor=#dae8fc;strokeColor=#6c8ebf;" parent="V6JTPzaAqQ7opR90GnSn-1" vertex="1">
          <mxGeometry x="1000" y="240" width="120" height="40" as="geometry" />
        </mxCell>
        <mxCell id="V6JTPzaAqQ7opR90GnSn-12" style="edgeStyle=orthogonalEdgeStyle;rounded=0;orthogonalLoop=1;jettySize=auto;html=1;exitX=0;exitY=0.5;exitDx=0;exitDy=0;entryX=1;entryY=0.5;entryDx=0;entryDy=0;fontSize=18;" parent="V6JTPzaAqQ7opR90GnSn-1" source="V6JTPzaAqQ7opR90GnSn-13" target="V6JTPzaAqQ7opR90GnSn-9" edge="1">
          <mxGeometry relative="1" as="geometry" />
        </mxCell>
        <mxCell id="V6JTPzaAqQ7opR90GnSn-13" value="Comment #2" style="rounded=0;whiteSpace=wrap;html=1;shadow=1;fontSize=20;fontStyle=0;fillColor=#dae8fc;strokeColor=#6c8ebf;" parent="V6JTPzaAqQ7opR90GnSn-1" vertex="1">
          <mxGeometry x="1000" y="290" width="120" height="40" as="geometry" />
        </mxCell>
        <mxCell id="V6JTPzaAqQ7opR90GnSn-14" style="edgeStyle=orthogonalEdgeStyle;rounded=0;orthogonalLoop=1;jettySize=auto;html=1;exitX=0;exitY=0.5;exitDx=0;exitDy=0;entryX=1;entryY=0.5;entryDx=0;entryDy=0;fontSize=18;" parent="V6JTPzaAqQ7opR90GnSn-1" source="V6JTPzaAqQ7opR90GnSn-15" target="V6JTPzaAqQ7opR90GnSn-9" edge="1">
          <mxGeometry relative="1" as="geometry" />
        </mxCell>
        <mxCell id="V6JTPzaAqQ7opR90GnSn-15" value="Comment #3" style="rounded=0;whiteSpace=wrap;html=1;shadow=1;fontSize=20;fontStyle=0;fillColor=#dae8fc;strokeColor=#6c8ebf;" parent="V6JTPzaAqQ7opR90GnSn-1" vertex="1">
          <mxGeometry x="1000" y="340" width="120" height="40" as="geometry" />
        </mxCell>
        <mxCell id="V6JTPzaAqQ7opR90GnSn-16" value="" style="shape=curlyBracket;whiteSpace=wrap;html=1;rounded=1;fontSize=18;rotation=-90;" parent="V6JTPzaAqQ7opR90GnSn-1" vertex="1">
          <mxGeometry x="680" y="340" width="20" height="120" as="geometry" />
        </mxCell>
        <mxCell id="V6JTPzaAqQ7opR90GnSn-17" value="" style="shape=curlyBracket;whiteSpace=wrap;html=1;rounded=1;fontSize=18;rotation=-90;" parent="V6JTPzaAqQ7opR90GnSn-1" vertex="1">
          <mxGeometry x="1050" y="340" width="20" height="120" as="geometry" />
        </mxCell>
        <mxCell id="V6JTPzaAqQ7opR90GnSn-18" value="Gets the foreign key column pointing at &#39;photo&#39;" style="text;html=1;strokeColor=none;fillColor=none;align=center;verticalAlign=middle;whiteSpace=wrap;rounded=0;fontSize=18;fontStyle=2" parent="V6JTPzaAqQ7opR90GnSn-1" vertex="1">
          <mxGeometry x="600" y="410" width="180" height="70" as="geometry" />
        </mxCell>
        <mxCell id="V6JTPzaAqQ7opR90GnSn-19" value="Gets the foreign key column pointing at &#39;user&#39;" style="text;html=1;strokeColor=none;fillColor=none;align=center;verticalAlign=middle;whiteSpace=wrap;rounded=0;fontSize=18;fontStyle=2" parent="V6JTPzaAqQ7opR90GnSn-1" vertex="1">
          <mxGeometry x="970" y="410" width="180" height="70" as="geometry" />
        </mxCell>
        <mxCell id="hL_R_6J4jl-2q_ytlyON-0" value="The &#39;many&#39; side of the relationship gets the foreign key column" style="rounded=0;whiteSpace=wrap;html=1;shadow=1;fontSize=20;fillColor=#f8cecc;strokeColor=#b85450;fontStyle=1" parent="V6JTPzaAqQ7opR90GnSn-1" vertex="1">
          <mxGeometry x="590" y="140" width="480" height="60" as="geometry" />
        </mxCell>
      </root>
    </mxGraphModel>
  </diagram>
  <diagram id="xo4E-dtrOjkFCahLWuKv" name="06 - notes">
    <mxGraphModel dx="791" dy="487" grid="1" gridSize="10" guides="1" tooltips="1" connect="1" arrows="1" fold="1" page="1" pageScale="1" pageWidth="1920" pageHeight="1200" math="0" shadow="0">
      <root>
        <mxCell id="9npfuEaD5Eqygjhod7w6-0" />
        <mxCell id="9npfuEaD5Eqygjhod7w6-1" parent="9npfuEaD5Eqygjhod7w6-0" />
        <mxCell id="9npfuEaD5Eqygjhod7w6-2" value="Primary Keys" style="rounded=0;whiteSpace=wrap;html=1;strokeWidth=1;fontSize=19;fillColor=#d5e8d4;strokeColor=#82b366;fontStyle=1" vertex="1" parent="9npfuEaD5Eqygjhod7w6-1">
          <mxGeometry x="650" y="310" width="300" height="30" as="geometry" />
        </mxCell>
        <mxCell id="9npfuEaD5Eqygjhod7w6-3" value="Each row in every table has one primary key" style="rounded=0;whiteSpace=wrap;html=1;strokeWidth=1;fontSize=15;fontStyle=0;fillColor=#dae8fc;strokeColor=#6c8ebf;shadow=1;" vertex="1" parent="9npfuEaD5Eqygjhod7w6-1">
          <mxGeometry x="650" y="350" width="298" height="40" as="geometry" />
        </mxCell>
        <mxCell id="9npfuEaD5Eqygjhod7w6-4" value="No other row in the &lt;i&gt;same table &lt;/i&gt;can have the same value&amp;nbsp;" style="rounded=0;whiteSpace=wrap;html=1;strokeWidth=1;fontSize=15;fontStyle=0;fillColor=#dae8fc;strokeColor=#6c8ebf;shadow=1;" vertex="1" parent="9npfuEaD5Eqygjhod7w6-1">
          <mxGeometry x="650" y="400" width="298" height="40" as="geometry" />
        </mxCell>
        <mxCell id="9npfuEaD5Eqygjhod7w6-5" value="99% of the time called &#39;id&#39;" style="rounded=0;whiteSpace=wrap;html=1;strokeWidth=1;fontSize=15;fontStyle=0;fillColor=#dae8fc;strokeColor=#6c8ebf;shadow=1;" vertex="1" parent="9npfuEaD5Eqygjhod7w6-1">
          <mxGeometry x="650" y="450" width="298" height="40" as="geometry" />
        </mxCell>
        <mxCell id="9npfuEaD5Eqygjhod7w6-6" value="Either an integer or a UUID" style="rounded=0;whiteSpace=wrap;html=1;strokeWidth=1;fontSize=15;fontStyle=0;fillColor=#dae8fc;strokeColor=#6c8ebf;shadow=1;" vertex="1" parent="9npfuEaD5Eqygjhod7w6-1">
          <mxGeometry x="650" y="500" width="298" height="40" as="geometry" />
        </mxCell>
        <mxCell id="9npfuEaD5Eqygjhod7w6-7" value="Rows only have this if they &lt;i&gt;belong to&lt;/i&gt;&amp;nbsp;another record" style="rounded=0;whiteSpace=wrap;html=1;strokeWidth=1;fontSize=15;fontStyle=0;fillColor=#dae8fc;strokeColor=#6c8ebf;shadow=1;" vertex="1" parent="9npfuEaD5Eqygjhod7w6-1">
          <mxGeometry x="1012" y="350" width="298" height="40" as="geometry" />
        </mxCell>
        <mxCell id="9npfuEaD5Eqygjhod7w6-8" value="Many rows in the same table can have the same foreign key" style="rounded=0;whiteSpace=wrap;html=1;strokeWidth=1;fontSize=15;fontStyle=0;fillColor=#dae8fc;strokeColor=#6c8ebf;shadow=1;" vertex="1" parent="9npfuEaD5Eqygjhod7w6-1">
          <mxGeometry x="1012" y="400" width="298" height="40" as="geometry" />
        </mxCell>
        <mxCell id="9npfuEaD5Eqygjhod7w6-9" value="Name varies, usually called something like&amp;nbsp;&lt;br&gt;&#39;xyz_id&#39;" style="rounded=0;whiteSpace=wrap;html=1;strokeWidth=1;fontSize=15;fontStyle=0;fillColor=#dae8fc;strokeColor=#6c8ebf;shadow=1;" vertex="1" parent="9npfuEaD5Eqygjhod7w6-1">
          <mxGeometry x="1012" y="450" width="298" height="40" as="geometry" />
        </mxCell>
        <mxCell id="9npfuEaD5Eqygjhod7w6-10" value="Exactly equal to the primary key of the referenced row" style="rounded=0;whiteSpace=wrap;html=1;strokeWidth=1;fontSize=15;fontStyle=0;fillColor=#dae8fc;strokeColor=#6c8ebf;shadow=1;" vertex="1" parent="9npfuEaD5Eqygjhod7w6-1">
          <mxGeometry x="1012" y="500" width="298" height="40" as="geometry" />
        </mxCell>
        <mxCell id="9npfuEaD5Eqygjhod7w6-11" value="Will never change" style="rounded=0;whiteSpace=wrap;html=1;strokeWidth=1;fontSize=15;fontStyle=0;fillColor=#dae8fc;strokeColor=#6c8ebf;shadow=1;" vertex="1" parent="9npfuEaD5Eqygjhod7w6-1">
          <mxGeometry x="650" y="550" width="298" height="40" as="geometry" />
        </mxCell>
        <mxCell id="9npfuEaD5Eqygjhod7w6-12" value="Will change if the relationship changes" style="rounded=0;whiteSpace=wrap;html=1;strokeWidth=1;fontSize=15;fontStyle=0;fillColor=#dae8fc;strokeColor=#6c8ebf;shadow=1;" vertex="1" parent="9npfuEaD5Eqygjhod7w6-1">
          <mxGeometry x="1012" y="550" width="298" height="40" as="geometry" />
        </mxCell>
        <mxCell id="9npfuEaD5Eqygjhod7w6-13" value="Foreign Keys" style="rounded=0;whiteSpace=wrap;html=1;strokeWidth=1;fontSize=19;fillColor=#d5e8d4;strokeColor=#82b366;fontStyle=1" vertex="1" parent="9npfuEaD5Eqygjhod7w6-1">
          <mxGeometry x="1010" y="310" width="300" height="30" as="geometry" />
        </mxCell>
      </root>
    </mxGraphModel>
  </diagram>
  <diagram id="G6hyRCD6AvmLvt0zfWoC" name="06 - schema">
    <mxGraphModel dx="715" dy="441" grid="1" gridSize="10" guides="1" tooltips="1" connect="1" arrows="1" fold="1" page="1" pageScale="1" pageWidth="1920" pageHeight="1200" math="0" shadow="0">
      <root>
        <mxCell id="-c77b2BPE7pWzvpJDpPF-0" />
        <mxCell id="-c77b2BPE7pWzvpJDpPF-1" parent="-c77b2BPE7pWzvpJDpPF-0" />
        <mxCell id="-c77b2BPE7pWzvpJDpPF-2" value="Database" style="rounded=0;whiteSpace=wrap;html=1;shadow=1;fontSize=22;fillColor=#d5e8d4;strokeColor=#82b366;" vertex="1" parent="-c77b2BPE7pWzvpJDpPF-1">
          <mxGeometry x="400" y="260" width="530" height="30" as="geometry" />
        </mxCell>
        <mxCell id="-c77b2BPE7pWzvpJDpPF-3" value="" style="rounded=0;whiteSpace=wrap;html=1;shadow=1;fontSize=22;fillColor=#d5e8d4;strokeColor=#82b366;" vertex="1" parent="-c77b2BPE7pWzvpJDpPF-1">
          <mxGeometry x="400" y="290" width="530" height="190" as="geometry" />
        </mxCell>
        <mxCell id="-c77b2BPE7pWzvpJDpPF-4" value="photos" style="rounded=0;whiteSpace=wrap;html=1;shadow=1;fontSize=20;fillColor=#ffe6cc;strokeColor=#d79b00;" vertex="1" parent="-c77b2BPE7pWzvpJDpPF-1">
          <mxGeometry x="410" y="310" width="240" height="25" as="geometry" />
        </mxCell>
        <mxCell id="-c77b2BPE7pWzvpJDpPF-5" value="id&lt;br&gt;&lt;font style=&quot;font-size: 8px&quot;&gt;INTEGER&lt;/font&gt;" style="rounded=0;whiteSpace=wrap;html=1;shadow=1;fontSize=12;fillColor=#f5f5f5;strokeColor=#666666;fontColor=#333333;fontStyle=2" vertex="1" parent="-c77b2BPE7pWzvpJDpPF-1">
          <mxGeometry x="410" y="335" width="80" height="35" as="geometry" />
        </mxCell>
        <mxCell id="-c77b2BPE7pWzvpJDpPF-6" value="url&lt;br&gt;&lt;span style=&quot;font-size: 8px&quot;&gt;VARCHAR(200)&lt;/span&gt;" style="rounded=0;whiteSpace=wrap;html=1;shadow=1;fontSize=12;fillColor=#f5f5f5;strokeColor=#666666;fontColor=#333333;fontStyle=2" vertex="1" parent="-c77b2BPE7pWzvpJDpPF-1">
          <mxGeometry x="490" y="335" width="80" height="35" as="geometry" />
        </mxCell>
        <mxCell id="3VpDKiTjQpm34Dke3vko-0" style="edgeStyle=orthogonalEdgeStyle;rounded=0;orthogonalLoop=1;jettySize=auto;html=1;exitX=1;exitY=0.5;exitDx=0;exitDy=0;entryX=0;entryY=0.5;entryDx=0;entryDy=0;fontSize=18;" edge="1" parent="-c77b2BPE7pWzvpJDpPF-1" source="-c77b2BPE7pWzvpJDpPF-7" target="-c77b2BPE7pWzvpJDpPF-25">
          <mxGeometry relative="1" as="geometry" />
        </mxCell>
        <mxCell id="-c77b2BPE7pWzvpJDpPF-7" value="user_id&lt;br&gt;&lt;span style=&quot;font-size: 8px&quot;&gt;INTEGER&lt;/span&gt;" style="rounded=0;whiteSpace=wrap;html=1;shadow=1;fontSize=12;fillColor=#f5f5f5;strokeColor=#666666;fontColor=#333333;fontStyle=2" vertex="1" parent="-c77b2BPE7pWzvpJDpPF-1">
          <mxGeometry x="570" y="335" width="80" height="35" as="geometry" />
        </mxCell>
        <mxCell id="-c77b2BPE7pWzvpJDpPF-8" value="1" style="rounded=0;whiteSpace=wrap;html=1;shadow=1;fontSize=12;fontStyle=0" vertex="1" parent="-c77b2BPE7pWzvpJDpPF-1">
          <mxGeometry x="410" y="370" width="80" height="25" as="geometry" />
        </mxCell>
        <mxCell id="-c77b2BPE7pWzvpJDpPF-9" value="http://img1.jpg" style="rounded=0;whiteSpace=wrap;html=1;shadow=1;fontSize=12;fontStyle=0" vertex="1" parent="-c77b2BPE7pWzvpJDpPF-1">
          <mxGeometry x="490" y="370" width="80" height="25" as="geometry" />
        </mxCell>
        <mxCell id="3VpDKiTjQpm34Dke3vko-1" style="edgeStyle=orthogonalEdgeStyle;rounded=0;orthogonalLoop=1;jettySize=auto;html=1;exitX=1;exitY=0.5;exitDx=0;exitDy=0;entryX=0;entryY=0.5;entryDx=0;entryDy=0;fontSize=18;" edge="1" parent="-c77b2BPE7pWzvpJDpPF-1" source="-c77b2BPE7pWzvpJDpPF-11" target="-c77b2BPE7pWzvpJDpPF-37">
          <mxGeometry relative="1" as="geometry" />
        </mxCell>
        <mxCell id="-c77b2BPE7pWzvpJDpPF-11" value="4" style="rounded=0;whiteSpace=wrap;html=1;shadow=1;fontSize=12;fontStyle=0" vertex="1" parent="-c77b2BPE7pWzvpJDpPF-1">
          <mxGeometry x="570" y="370" width="80" height="25" as="geometry" />
        </mxCell>
        <mxCell id="-c77b2BPE7pWzvpJDpPF-12" value="2" style="rounded=0;whiteSpace=wrap;html=1;shadow=1;fontSize=12;fontStyle=0" vertex="1" parent="-c77b2BPE7pWzvpJDpPF-1">
          <mxGeometry x="410" y="395" width="80" height="25" as="geometry" />
        </mxCell>
        <mxCell id="-c77b2BPE7pWzvpJDpPF-13" value="http://img2.jpg" style="rounded=0;whiteSpace=wrap;html=1;shadow=1;fontSize=12;fontStyle=0" vertex="1" parent="-c77b2BPE7pWzvpJDpPF-1">
          <mxGeometry x="490" y="395" width="80" height="25" as="geometry" />
        </mxCell>
        <mxCell id="-c77b2BPE7pWzvpJDpPF-15" value="4" style="rounded=0;whiteSpace=wrap;html=1;shadow=1;fontSize=12;fontStyle=0" vertex="1" parent="-c77b2BPE7pWzvpJDpPF-1">
          <mxGeometry x="570" y="395" width="80" height="25" as="geometry" />
        </mxCell>
        <mxCell id="-c77b2BPE7pWzvpJDpPF-16" value="3" style="rounded=0;whiteSpace=wrap;html=1;shadow=1;fontSize=12;fontStyle=0" vertex="1" parent="-c77b2BPE7pWzvpJDpPF-1">
          <mxGeometry x="410" y="420" width="80" height="25" as="geometry" />
        </mxCell>
        <mxCell id="-c77b2BPE7pWzvpJDpPF-17" value="http://img3.jpg" style="rounded=0;whiteSpace=wrap;html=1;shadow=1;fontSize=12;fontStyle=0" vertex="1" parent="-c77b2BPE7pWzvpJDpPF-1">
          <mxGeometry x="490" y="420" width="80" height="25" as="geometry" />
        </mxCell>
        <mxCell id="-c77b2BPE7pWzvpJDpPF-19" value="1" style="rounded=0;whiteSpace=wrap;html=1;shadow=1;fontSize=12;fontStyle=0" vertex="1" parent="-c77b2BPE7pWzvpJDpPF-1">
          <mxGeometry x="570" y="420" width="80" height="25" as="geometry" />
        </mxCell>
        <mxCell id="-c77b2BPE7pWzvpJDpPF-20" value="4" style="rounded=0;whiteSpace=wrap;html=1;shadow=1;fontSize=12;fontStyle=0" vertex="1" parent="-c77b2BPE7pWzvpJDpPF-1">
          <mxGeometry x="410" y="445" width="80" height="25" as="geometry" />
        </mxCell>
        <mxCell id="-c77b2BPE7pWzvpJDpPF-21" value="http://img4.jpg" style="rounded=0;whiteSpace=wrap;html=1;shadow=1;fontSize=12;fontStyle=0" vertex="1" parent="-c77b2BPE7pWzvpJDpPF-1">
          <mxGeometry x="490" y="445" width="80" height="25" as="geometry" />
        </mxCell>
        <mxCell id="-c77b2BPE7pWzvpJDpPF-23" value="2" style="rounded=0;whiteSpace=wrap;html=1;shadow=1;fontSize=12;fontStyle=0" vertex="1" parent="-c77b2BPE7pWzvpJDpPF-1">
          <mxGeometry x="570" y="445" width="80" height="25" as="geometry" />
        </mxCell>
        <mxCell id="-c77b2BPE7pWzvpJDpPF-24" value="users" style="rounded=0;whiteSpace=wrap;html=1;shadow=1;fontSize=20;fillColor=#ffe6cc;strokeColor=#d79b00;" vertex="1" parent="-c77b2BPE7pWzvpJDpPF-1">
          <mxGeometry x="750" y="310" width="160" height="25" as="geometry" />
        </mxCell>
        <mxCell id="-c77b2BPE7pWzvpJDpPF-25" value="id&lt;br&gt;&lt;font style=&quot;font-size: 8px&quot;&gt;INTEGER&lt;/font&gt;" style="rounded=0;whiteSpace=wrap;html=1;shadow=1;fontSize=12;fillColor=#f5f5f5;strokeColor=#666666;fontColor=#333333;fontStyle=2" vertex="1" parent="-c77b2BPE7pWzvpJDpPF-1">
          <mxGeometry x="750" y="335" width="80" height="35" as="geometry" />
        </mxCell>
        <mxCell id="-c77b2BPE7pWzvpJDpPF-26" value="username&lt;br&gt;&lt;span style=&quot;font-size: 8px&quot;&gt;VARCHAR(50)&lt;/span&gt;" style="rounded=0;whiteSpace=wrap;html=1;shadow=1;fontSize=12;fillColor=#f5f5f5;strokeColor=#666666;fontColor=#333333;fontStyle=2" vertex="1" parent="-c77b2BPE7pWzvpJDpPF-1">
          <mxGeometry x="830" y="335" width="80" height="35" as="geometry" />
        </mxCell>
        <mxCell id="-c77b2BPE7pWzvpJDpPF-28" value="1" style="rounded=0;whiteSpace=wrap;html=1;shadow=1;fontSize=12;fontStyle=0" vertex="1" parent="-c77b2BPE7pWzvpJDpPF-1">
          <mxGeometry x="750" y="370" width="80" height="25" as="geometry" />
        </mxCell>
        <mxCell id="-c77b2BPE7pWzvpJDpPF-29" value="monahan93" style="rounded=0;whiteSpace=wrap;html=1;shadow=1;fontSize=12;fontStyle=0" vertex="1" parent="-c77b2BPE7pWzvpJDpPF-1">
          <mxGeometry x="830" y="370" width="80" height="25" as="geometry" />
        </mxCell>
        <mxCell id="-c77b2BPE7pWzvpJDpPF-31" value="2" style="rounded=0;whiteSpace=wrap;html=1;shadow=1;fontSize=12;fontStyle=0" vertex="1" parent="-c77b2BPE7pWzvpJDpPF-1">
          <mxGeometry x="750" y="395" width="80" height="25" as="geometry" />
        </mxCell>
        <mxCell id="-c77b2BPE7pWzvpJDpPF-32" value="pfeffer" style="rounded=0;whiteSpace=wrap;html=1;shadow=1;fontSize=12;fontStyle=0" vertex="1" parent="-c77b2BPE7pWzvpJDpPF-1">
          <mxGeometry x="830" y="395" width="80" height="25" as="geometry" />
        </mxCell>
        <mxCell id="-c77b2BPE7pWzvpJDpPF-34" value="3" style="rounded=0;whiteSpace=wrap;html=1;shadow=1;fontSize=12;fontStyle=0" vertex="1" parent="-c77b2BPE7pWzvpJDpPF-1">
          <mxGeometry x="750" y="420" width="80" height="25" as="geometry" />
        </mxCell>
        <mxCell id="-c77b2BPE7pWzvpJDpPF-35" value="99stroman" style="rounded=0;whiteSpace=wrap;html=1;shadow=1;fontSize=12;fontStyle=0" vertex="1" parent="-c77b2BPE7pWzvpJDpPF-1">
          <mxGeometry x="830" y="420" width="80" height="25" as="geometry" />
        </mxCell>
        <mxCell id="-c77b2BPE7pWzvpJDpPF-37" value="4" style="rounded=0;whiteSpace=wrap;html=1;shadow=1;fontSize=12;fontStyle=0" vertex="1" parent="-c77b2BPE7pWzvpJDpPF-1">
          <mxGeometry x="750" y="445" width="80" height="25" as="geometry" />
        </mxCell>
        <mxCell id="-c77b2BPE7pWzvpJDpPF-38" value="sim3onis" style="rounded=0;whiteSpace=wrap;html=1;shadow=1;fontSize=12;fontStyle=0" vertex="1" parent="-c77b2BPE7pWzvpJDpPF-1">
          <mxGeometry x="830" y="445" width="80" height="25" as="geometry" />
        </mxCell>
        <mxCell id="-c77b2BPE7pWzvpJDpPF-40" value="" style="shape=curlyBracket;whiteSpace=wrap;html=1;rounded=1;strokeWidth=1;fontSize=15;rotation=-90;fillColor=#f8cecc;strokeColor=#b85450;" vertex="1" parent="-c77b2BPE7pWzvpJDpPF-1">
          <mxGeometry x="432.5" y="451.5" width="35" height="80" as="geometry" />
        </mxCell>
        <mxCell id="-c77b2BPE7pWzvpJDpPF-41" value="Primary Key" style="rounded=0;whiteSpace=wrap;html=1;strokeWidth=1;fontSize=15;fillColor=#f8cecc;strokeColor=#b85450;fontStyle=1" vertex="1" parent="-c77b2BPE7pWzvpJDpPF-1">
          <mxGeometry x="385" y="510" width="130" height="30" as="geometry" />
        </mxCell>
        <mxCell id="-c77b2BPE7pWzvpJDpPF-42" value="Uniquely identifies this record in this table" style="text;html=1;strokeColor=none;fillColor=none;align=center;verticalAlign=middle;whiteSpace=wrap;rounded=0;fontSize=12;fontStyle=2" vertex="1" parent="-c77b2BPE7pWzvpJDpPF-1">
          <mxGeometry x="385" y="539" width="130" height="40" as="geometry" />
        </mxCell>
        <mxCell id="-c77b2BPE7pWzvpJDpPF-43" value="" style="shape=curlyBracket;whiteSpace=wrap;html=1;rounded=1;strokeWidth=1;fontSize=15;rotation=-90;fillColor=#f8cecc;strokeColor=#b85450;" vertex="1" parent="-c77b2BPE7pWzvpJDpPF-1">
          <mxGeometry x="592.5" y="451.5" width="35" height="80" as="geometry" />
        </mxCell>
        <mxCell id="-c77b2BPE7pWzvpJDpPF-44" value="Foreign Key" style="rounded=0;whiteSpace=wrap;html=1;strokeWidth=1;fontSize=15;fillColor=#f8cecc;strokeColor=#b85450;fontStyle=1" vertex="1" parent="-c77b2BPE7pWzvpJDpPF-1">
          <mxGeometry x="545" y="510" width="130" height="30" as="geometry" />
        </mxCell>
        <mxCell id="-c77b2BPE7pWzvpJDpPF-45" value="Identifies a record (usually in another table) that this row is associated with" style="text;html=1;strokeColor=none;fillColor=none;align=center;verticalAlign=middle;whiteSpace=wrap;rounded=0;fontSize=12;fontStyle=2" vertex="1" parent="-c77b2BPE7pWzvpJDpPF-1">
          <mxGeometry x="545" y="539" width="130" height="61" as="geometry" />
        </mxCell>
        <mxCell id="-c77b2BPE7pWzvpJDpPF-46" value="" style="shape=curlyBracket;whiteSpace=wrap;html=1;rounded=1;strokeWidth=1;fontSize=15;rotation=-90;fillColor=#f8cecc;strokeColor=#b85450;" vertex="1" parent="-c77b2BPE7pWzvpJDpPF-1">
          <mxGeometry x="772.5" y="451.5" width="35" height="80" as="geometry" />
        </mxCell>
        <mxCell id="-c77b2BPE7pWzvpJDpPF-47" value="Primary Key" style="rounded=0;whiteSpace=wrap;html=1;strokeWidth=1;fontSize=15;fillColor=#f8cecc;strokeColor=#b85450;fontStyle=1" vertex="1" parent="-c77b2BPE7pWzvpJDpPF-1">
          <mxGeometry x="725" y="510" width="130" height="30" as="geometry" />
        </mxCell>
        <mxCell id="-c77b2BPE7pWzvpJDpPF-48" value="Uniquely identifies this record in this table" style="text;html=1;strokeColor=none;fillColor=none;align=center;verticalAlign=middle;whiteSpace=wrap;rounded=0;fontSize=12;fontStyle=2" vertex="1" parent="-c77b2BPE7pWzvpJDpPF-1">
          <mxGeometry x="725" y="539" width="130" height="40" as="geometry" />
        </mxCell>
      </root>
    </mxGraphModel>
  </diagram>
  <diagram id="9o3t4gpsVtLUMU9nbe9J" name="07 - query">
    <mxGraphModel dx="715" dy="441" grid="1" gridSize="10" guides="1" tooltips="1" connect="1" arrows="1" fold="1" page="1" pageScale="1" pageWidth="1920" pageHeight="1200" math="0" shadow="0">
      <root>
        <mxCell id="4HYK05jHAd2dl2C76O6n-0" />
        <mxCell id="4HYK05jHAd2dl2C76O6n-1" parent="4HYK05jHAd2dl2C76O6n-0" />
        <mxCell id="4HYK05jHAd2dl2C76O6n-2" value="Find all the photos created by user with ID 4" style="rounded=0;whiteSpace=wrap;html=1;fontSize=18;" vertex="1" parent="4HYK05jHAd2dl2C76O6n-1">
          <mxGeometry x="480" y="290" width="520" height="40" as="geometry" />
        </mxCell>
        <mxCell id="4HYK05jHAd2dl2C76O6n-3" value="SELECT * FROM photos WHERE user_id = 4;" style="rounded=0;whiteSpace=wrap;html=1;fontSize=24;fillColor=#dae8fc;strokeColor=#6c8ebf;fontStyle=1;align=left;spacingLeft=20;" vertex="1" parent="4HYK05jHAd2dl2C76O6n-1">
          <mxGeometry x="480" y="330" width="600" height="70" as="geometry" />
        </mxCell>
        <mxCell id="4HYK05jHAd2dl2C76O6n-4" value="List all photos with details about the associated user for each" style="rounded=0;whiteSpace=wrap;html=1;fontSize=18;" vertex="1" parent="4HYK05jHAd2dl2C76O6n-1">
          <mxGeometry x="480" y="460" width="520" height="40" as="geometry" />
        </mxCell>
        <mxCell id="4HYK05jHAd2dl2C76O6n-5" value="&lt;div&gt;SELECT * FROM photos&lt;/div&gt;&lt;div&gt;JOIN users ON users.id = photos.user_id;&lt;/div&gt;" style="rounded=0;whiteSpace=wrap;html=1;fontSize=24;fillColor=#dae8fc;strokeColor=#6c8ebf;fontStyle=1;align=left;spacingLeft=20;" vertex="1" parent="4HYK05jHAd2dl2C76O6n-1">
          <mxGeometry x="480" y="500" width="600" height="70" as="geometry" />
        </mxCell>
        <mxCell id="4HYK05jHAd2dl2C76O6n-6" value="&lt;i style=&quot;font-size: 16px;&quot;&gt;This is a join. We will go into great detail on it shortly!&lt;/i&gt;" style="text;html=1;strokeColor=none;fillColor=none;align=center;verticalAlign=middle;whiteSpace=wrap;rounded=0;fontSize=16;" vertex="1" parent="4HYK05jHAd2dl2C76O6n-1">
          <mxGeometry x="620" y="581" width="320" height="30" as="geometry" />
        </mxCell>
      </root>
    </mxGraphModel>
  </diagram>
  <diagram id="xPCWlDPCT-ozR1TSTchq" name="08 - fk constraints">
    <mxGraphModel dx="639" dy="394" grid="1" gridSize="10" guides="1" tooltips="1" connect="1" arrows="1" fold="1" page="1" pageScale="1" pageWidth="1920" pageHeight="1200" math="0" shadow="0">
      <root>
        <mxCell id="eOmbPJp7XuGxMP4PlygZ-0" />
        <mxCell id="eOmbPJp7XuGxMP4PlygZ-1" parent="eOmbPJp7XuGxMP4PlygZ-0" />
        <mxCell id="Jd5xptWhT2ohWEArKXey-0" value="Database" style="rounded=0;whiteSpace=wrap;html=1;shadow=1;fontSize=22;fillColor=#d5e8d4;strokeColor=#82b366;" vertex="1" parent="eOmbPJp7XuGxMP4PlygZ-1">
          <mxGeometry x="400" y="260" width="530" height="30" as="geometry" />
        </mxCell>
        <mxCell id="Jd5xptWhT2ohWEArKXey-1" value="" style="rounded=0;whiteSpace=wrap;html=1;shadow=1;fontSize=22;fillColor=#d5e8d4;strokeColor=#82b366;" vertex="1" parent="eOmbPJp7XuGxMP4PlygZ-1">
          <mxGeometry x="400" y="290" width="530" height="290" as="geometry" />
        </mxCell>
        <mxCell id="Jd5xptWhT2ohWEArKXey-2" value="photos" style="rounded=0;whiteSpace=wrap;html=1;shadow=1;fontSize=20;fillColor=#ffe6cc;strokeColor=#d79b00;" vertex="1" parent="eOmbPJp7XuGxMP4PlygZ-1">
          <mxGeometry x="415" y="305" width="240" height="25" as="geometry" />
        </mxCell>
        <mxCell id="Jd5xptWhT2ohWEArKXey-3" value="id&lt;br&gt;&lt;font style=&quot;font-size: 8px&quot;&gt;INTEGER&lt;/font&gt;" style="rounded=0;whiteSpace=wrap;html=1;shadow=1;fontSize=12;fillColor=#f5f5f5;strokeColor=#666666;fontColor=#333333;fontStyle=2" vertex="1" parent="eOmbPJp7XuGxMP4PlygZ-1">
          <mxGeometry x="415" y="330" width="80" height="35" as="geometry" />
        </mxCell>
        <mxCell id="Jd5xptWhT2ohWEArKXey-4" value="url&lt;br&gt;&lt;span style=&quot;font-size: 8px&quot;&gt;VARCHAR(200)&lt;/span&gt;" style="rounded=0;whiteSpace=wrap;html=1;shadow=1;fontSize=12;fillColor=#f5f5f5;strokeColor=#666666;fontColor=#333333;fontStyle=2" vertex="1" parent="eOmbPJp7XuGxMP4PlygZ-1">
          <mxGeometry x="495" y="330" width="80" height="35" as="geometry" />
        </mxCell>
        <mxCell id="Jd5xptWhT2ohWEArKXey-6" value="user_id&lt;br&gt;&lt;span style=&quot;font-size: 8px&quot;&gt;INTEGER&lt;/span&gt;" style="rounded=0;whiteSpace=wrap;html=1;shadow=1;fontSize=12;fillColor=#f5f5f5;strokeColor=#666666;fontColor=#333333;fontStyle=2" vertex="1" parent="eOmbPJp7XuGxMP4PlygZ-1">
          <mxGeometry x="575" y="330" width="80" height="35" as="geometry" />
        </mxCell>
        <mxCell id="Jd5xptWhT2ohWEArKXey-7" value="1" style="rounded=0;whiteSpace=wrap;html=1;shadow=1;fontSize=12;fontStyle=0" vertex="1" parent="eOmbPJp7XuGxMP4PlygZ-1">
          <mxGeometry x="415" y="365" width="80" height="25" as="geometry" />
        </mxCell>
        <mxCell id="Jd5xptWhT2ohWEArKXey-8" value="http://img1.jpg" style="rounded=0;whiteSpace=wrap;html=1;shadow=1;fontSize=12;fontStyle=0" vertex="1" parent="eOmbPJp7XuGxMP4PlygZ-1">
          <mxGeometry x="495" y="365" width="80" height="25" as="geometry" />
        </mxCell>
        <mxCell id="Jd5xptWhT2ohWEArKXey-10" value="4" style="rounded=0;whiteSpace=wrap;html=1;shadow=1;fontSize=12;fontStyle=0" vertex="1" parent="eOmbPJp7XuGxMP4PlygZ-1">
          <mxGeometry x="575" y="365" width="80" height="25" as="geometry" />
        </mxCell>
        <mxCell id="Jd5xptWhT2ohWEArKXey-11" value="2" style="rounded=0;whiteSpace=wrap;html=1;shadow=1;fontSize=12;fontStyle=0" vertex="1" parent="eOmbPJp7XuGxMP4PlygZ-1">
          <mxGeometry x="415" y="390" width="80" height="25" as="geometry" />
        </mxCell>
        <mxCell id="Jd5xptWhT2ohWEArKXey-12" value="http://img2.jpg" style="rounded=0;whiteSpace=wrap;html=1;shadow=1;fontSize=12;fontStyle=0" vertex="1" parent="eOmbPJp7XuGxMP4PlygZ-1">
          <mxGeometry x="495" y="390" width="80" height="25" as="geometry" />
        </mxCell>
        <mxCell id="Jd5xptWhT2ohWEArKXey-13" value="1" style="rounded=0;whiteSpace=wrap;html=1;shadow=1;fontSize=12;fontStyle=0" vertex="1" parent="eOmbPJp7XuGxMP4PlygZ-1">
          <mxGeometry x="575" y="390" width="80" height="25" as="geometry" />
        </mxCell>
        <mxCell id="Jd5xptWhT2ohWEArKXey-14" value="3" style="rounded=0;whiteSpace=wrap;html=1;shadow=1;fontSize=12;fontStyle=0" vertex="1" parent="eOmbPJp7XuGxMP4PlygZ-1">
          <mxGeometry x="415" y="415" width="80" height="25" as="geometry" />
        </mxCell>
        <mxCell id="Jd5xptWhT2ohWEArKXey-15" value="http://img3.jpg" style="rounded=0;whiteSpace=wrap;html=1;shadow=1;fontSize=12;fontStyle=0" vertex="1" parent="eOmbPJp7XuGxMP4PlygZ-1">
          <mxGeometry x="495" y="415" width="80" height="25" as="geometry" />
        </mxCell>
        <mxCell id="Jd5xptWhT2ohWEArKXey-16" value="1" style="rounded=0;whiteSpace=wrap;html=1;shadow=1;fontSize=12;fontStyle=0" vertex="1" parent="eOmbPJp7XuGxMP4PlygZ-1">
          <mxGeometry x="575" y="415" width="80" height="25" as="geometry" />
        </mxCell>
        <mxCell id="Jd5xptWhT2ohWEArKXey-17" value="4" style="rounded=0;whiteSpace=wrap;html=1;shadow=1;fontSize=12;fontStyle=0" vertex="1" parent="eOmbPJp7XuGxMP4PlygZ-1">
          <mxGeometry x="415" y="440" width="80" height="25" as="geometry" />
        </mxCell>
        <mxCell id="Jd5xptWhT2ohWEArKXey-18" value="http://img4.jpg" style="rounded=0;whiteSpace=wrap;html=1;shadow=1;fontSize=12;fontStyle=0" vertex="1" parent="eOmbPJp7XuGxMP4PlygZ-1">
          <mxGeometry x="495" y="440" width="80" height="25" as="geometry" />
        </mxCell>
        <mxCell id="Jd5xptWhT2ohWEArKXey-19" value="1" style="rounded=0;whiteSpace=wrap;html=1;shadow=1;fontSize=12;fontStyle=0" vertex="1" parent="eOmbPJp7XuGxMP4PlygZ-1">
          <mxGeometry x="575" y="440" width="80" height="25" as="geometry" />
        </mxCell>
        <mxCell id="Jd5xptWhT2ohWEArKXey-20" value="users" style="rounded=0;whiteSpace=wrap;html=1;shadow=1;fontSize=20;fillColor=#ffe6cc;strokeColor=#d79b00;" vertex="1" parent="eOmbPJp7XuGxMP4PlygZ-1">
          <mxGeometry x="755" y="305" width="160" height="25" as="geometry" />
        </mxCell>
        <mxCell id="Jd5xptWhT2ohWEArKXey-21" value="id&lt;br&gt;&lt;font style=&quot;font-size: 8px&quot;&gt;INTEGER&lt;/font&gt;" style="rounded=0;whiteSpace=wrap;html=1;shadow=1;fontSize=12;fillColor=#f5f5f5;strokeColor=#666666;fontColor=#333333;fontStyle=2" vertex="1" parent="eOmbPJp7XuGxMP4PlygZ-1">
          <mxGeometry x="755" y="330" width="80" height="35" as="geometry" />
        </mxCell>
        <mxCell id="Jd5xptWhT2ohWEArKXey-22" value="username&lt;br&gt;&lt;span style=&quot;font-size: 8px&quot;&gt;VARCHAR(50)&lt;/span&gt;" style="rounded=0;whiteSpace=wrap;html=1;shadow=1;fontSize=12;fillColor=#f5f5f5;strokeColor=#666666;fontColor=#333333;fontStyle=2" vertex="1" parent="eOmbPJp7XuGxMP4PlygZ-1">
          <mxGeometry x="835" y="330" width="80" height="35" as="geometry" />
        </mxCell>
        <mxCell id="Jd5xptWhT2ohWEArKXey-23" value="1" style="rounded=0;whiteSpace=wrap;html=1;shadow=1;fontSize=12;fontStyle=0" vertex="1" parent="eOmbPJp7XuGxMP4PlygZ-1">
          <mxGeometry x="755" y="365" width="80" height="25" as="geometry" />
        </mxCell>
        <mxCell id="Jd5xptWhT2ohWEArKXey-24" value="monahan93" style="rounded=0;whiteSpace=wrap;html=1;shadow=1;fontSize=12;fontStyle=0" vertex="1" parent="eOmbPJp7XuGxMP4PlygZ-1">
          <mxGeometry x="835" y="365" width="80" height="25" as="geometry" />
        </mxCell>
        <mxCell id="Jd5xptWhT2ohWEArKXey-25" value="2" style="rounded=0;whiteSpace=wrap;html=1;shadow=1;fontSize=12;fontStyle=0" vertex="1" parent="eOmbPJp7XuGxMP4PlygZ-1">
          <mxGeometry x="755" y="390" width="80" height="25" as="geometry" />
        </mxCell>
        <mxCell id="Jd5xptWhT2ohWEArKXey-26" value="pfeffer" style="rounded=0;whiteSpace=wrap;html=1;shadow=1;fontSize=12;fontStyle=0" vertex="1" parent="eOmbPJp7XuGxMP4PlygZ-1">
          <mxGeometry x="835" y="390" width="80" height="25" as="geometry" />
        </mxCell>
        <mxCell id="Jd5xptWhT2ohWEArKXey-27" value="3" style="rounded=0;whiteSpace=wrap;html=1;shadow=1;fontSize=12;fontStyle=0" vertex="1" parent="eOmbPJp7XuGxMP4PlygZ-1">
          <mxGeometry x="755" y="415" width="80" height="25" as="geometry" />
        </mxCell>
        <mxCell id="Jd5xptWhT2ohWEArKXey-28" value="99stroman" style="rounded=0;whiteSpace=wrap;html=1;shadow=1;fontSize=12;fontStyle=0" vertex="1" parent="eOmbPJp7XuGxMP4PlygZ-1">
          <mxGeometry x="835" y="415" width="80" height="25" as="geometry" />
        </mxCell>
        <mxCell id="Jd5xptWhT2ohWEArKXey-29" value="4" style="rounded=0;whiteSpace=wrap;html=1;shadow=1;fontSize=12;fontStyle=0" vertex="1" parent="eOmbPJp7XuGxMP4PlygZ-1">
          <mxGeometry x="755" y="440" width="80" height="25" as="geometry" />
        </mxCell>
        <mxCell id="Jd5xptWhT2ohWEArKXey-30" value="sim3onis" style="rounded=0;whiteSpace=wrap;html=1;shadow=1;fontSize=12;fontStyle=0" vertex="1" parent="eOmbPJp7XuGxMP4PlygZ-1">
          <mxGeometry x="835" y="440" width="80" height="25" as="geometry" />
        </mxCell>
        <mxCell id="bz0VlhfyJwMin8BK16TF-0" value="5" style="rounded=0;whiteSpace=wrap;html=1;shadow=1;fontSize=12;fontStyle=0" vertex="1" parent="eOmbPJp7XuGxMP4PlygZ-1">
          <mxGeometry x="415" y="465" width="80" height="25" as="geometry" />
        </mxCell>
        <mxCell id="bz0VlhfyJwMin8BK16TF-1" value="http://img5.jpg" style="rounded=0;whiteSpace=wrap;html=1;shadow=1;fontSize=12;fontStyle=0" vertex="1" parent="eOmbPJp7XuGxMP4PlygZ-1">
          <mxGeometry x="495" y="465" width="80" height="25" as="geometry" />
        </mxCell>
        <mxCell id="bz0VlhfyJwMin8BK16TF-2" value="2" style="rounded=0;whiteSpace=wrap;html=1;shadow=1;fontSize=12;fontStyle=0" vertex="1" parent="eOmbPJp7XuGxMP4PlygZ-1">
          <mxGeometry x="575" y="465" width="80" height="25" as="geometry" />
        </mxCell>
        <mxCell id="bz0VlhfyJwMin8BK16TF-3" value="6" style="rounded=0;whiteSpace=wrap;html=1;shadow=1;fontSize=12;fontStyle=0" vertex="1" parent="eOmbPJp7XuGxMP4PlygZ-1">
          <mxGeometry x="415" y="490" width="80" height="25" as="geometry" />
        </mxCell>
        <mxCell id="bz0VlhfyJwMin8BK16TF-4" value="http://img6.jpg" style="rounded=0;whiteSpace=wrap;html=1;shadow=1;fontSize=12;fontStyle=0" vertex="1" parent="eOmbPJp7XuGxMP4PlygZ-1">
          <mxGeometry x="495" y="490" width="80" height="25" as="geometry" />
        </mxCell>
        <mxCell id="bz0VlhfyJwMin8BK16TF-5" value="3" style="rounded=0;whiteSpace=wrap;html=1;shadow=1;fontSize=12;fontStyle=0" vertex="1" parent="eOmbPJp7XuGxMP4PlygZ-1">
          <mxGeometry x="575" y="490" width="80" height="25" as="geometry" />
        </mxCell>
        <mxCell id="bz0VlhfyJwMin8BK16TF-6" value="7" style="rounded=0;whiteSpace=wrap;html=1;shadow=1;fontSize=12;fontStyle=0" vertex="1" parent="eOmbPJp7XuGxMP4PlygZ-1">
          <mxGeometry x="415" y="515" width="80" height="25" as="geometry" />
        </mxCell>
        <mxCell id="bz0VlhfyJwMin8BK16TF-7" value="http://img6.jpg" style="rounded=0;whiteSpace=wrap;html=1;shadow=1;fontSize=12;fontStyle=0" vertex="1" parent="eOmbPJp7XuGxMP4PlygZ-1">
          <mxGeometry x="495" y="515" width="80" height="25" as="geometry" />
        </mxCell>
        <mxCell id="bz0VlhfyJwMin8BK16TF-8" value="4" style="rounded=0;whiteSpace=wrap;html=1;shadow=1;fontSize=12;fontStyle=0" vertex="1" parent="eOmbPJp7XuGxMP4PlygZ-1">
          <mxGeometry x="575" y="515" width="80" height="25" as="geometry" />
        </mxCell>
        <mxCell id="j0e3i9hj9bGfoJX-FqFm-0" value="8" style="rounded=0;whiteSpace=wrap;html=1;shadow=1;fontSize=12;fontStyle=0" vertex="1" parent="eOmbPJp7XuGxMP4PlygZ-1">
          <mxGeometry x="415" y="540" width="80" height="25" as="geometry" />
        </mxCell>
        <mxCell id="j0e3i9hj9bGfoJX-FqFm-1" value="http://img6.jpg" style="rounded=0;whiteSpace=wrap;html=1;shadow=1;fontSize=12;fontStyle=0" vertex="1" parent="eOmbPJp7XuGxMP4PlygZ-1">
          <mxGeometry x="495" y="540" width="80" height="25" as="geometry" />
        </mxCell>
        <mxCell id="j0e3i9hj9bGfoJX-FqFm-2" value="345678" style="rounded=0;whiteSpace=wrap;html=1;shadow=1;fontSize=12;fontStyle=0" vertex="1" parent="eOmbPJp7XuGxMP4PlygZ-1">
          <mxGeometry x="575" y="540" width="80" height="25" as="geometry" />
        </mxCell>
      </root>
    </mxGraphModel>
  </diagram>
  <diagram id="WJsHeFvu0OfXQAGFRDZw" name="09 - cons">
    <mxGraphModel dx="626" dy="386" grid="1" gridSize="10" guides="1" tooltips="1" connect="1" arrows="1" fold="1" page="1" pageScale="1" pageWidth="1920" pageHeight="1200" math="0" shadow="0">
      <root>
        <mxCell id="qTauqA9gqiph0CW3DHrp-0" />
        <mxCell id="qTauqA9gqiph0CW3DHrp-1" parent="qTauqA9gqiph0CW3DHrp-0" />
        <mxCell id="HDX4HPnBfFSnDsaNg2Rt-0" value="We insert a photo that refers to a user that doesn&#39;t" style="rounded=0;whiteSpace=wrap;html=1;fontSize=17;align=center;fontStyle=0;fillColor=#dae8fc;strokeColor=#6c8ebf;" vertex="1" parent="qTauqA9gqiph0CW3DHrp-1">
          <mxGeometry x="630" y="320" width="200" height="80" as="geometry" />
        </mxCell>
        <mxCell id="HDX4HPnBfFSnDsaNg2Rt-3" value="We insert a photo that isn&#39;t tied to any user" style="rounded=0;whiteSpace=wrap;html=1;fontSize=17;align=center;fontStyle=0;fillColor=#dae8fc;strokeColor=#6c8ebf;" vertex="1" parent="qTauqA9gqiph0CW3DHrp-1">
          <mxGeometry x="840" y="320" width="200" height="80" as="geometry" />
        </mxCell>
        <mxCell id="HDX4HPnBfFSnDsaNg2Rt-5" style="edgeStyle=orthogonalEdgeStyle;rounded=0;orthogonalLoop=1;jettySize=auto;html=1;exitX=0.5;exitY=1;exitDx=0;exitDy=0;fontSize=17;" edge="1" parent="qTauqA9gqiph0CW3DHrp-1" source="HDX4HPnBfFSnDsaNg2Rt-4">
          <mxGeometry relative="1" as="geometry">
            <mxPoint x="519.8333333333335" y="430" as="targetPoint" />
          </mxGeometry>
        </mxCell>
        <mxCell id="HDX4HPnBfFSnDsaNg2Rt-4" value="We insert a photo that is tied to a user that exists" style="rounded=0;whiteSpace=wrap;html=1;fontSize=17;align=center;fontStyle=0;fillColor=#dae8fc;strokeColor=#6c8ebf;" vertex="1" parent="qTauqA9gqiph0CW3DHrp-1">
          <mxGeometry x="420" y="320" width="200" height="80" as="geometry" />
        </mxCell>
        <mxCell id="HDX4HPnBfFSnDsaNg2Rt-6" value="Everything works OK!" style="rounded=0;whiteSpace=wrap;html=1;fontSize=17;align=center;fontStyle=0;" vertex="1" parent="qTauqA9gqiph0CW3DHrp-1">
          <mxGeometry x="420" y="430" width="200" height="80" as="geometry" />
        </mxCell>
        <mxCell id="HDX4HPnBfFSnDsaNg2Rt-7" style="edgeStyle=orthogonalEdgeStyle;rounded=0;orthogonalLoop=1;jettySize=auto;html=1;exitX=0.5;exitY=1;exitDx=0;exitDy=0;fontSize=17;" edge="1" parent="qTauqA9gqiph0CW3DHrp-1">
          <mxGeometry relative="1" as="geometry">
            <mxPoint x="729.8333333333335" y="430" as="targetPoint" />
            <mxPoint x="730" y="400" as="sourcePoint" />
          </mxGeometry>
        </mxCell>
        <mxCell id="HDX4HPnBfFSnDsaNg2Rt-8" value="An error!" style="rounded=0;whiteSpace=wrap;html=1;fontSize=17;align=center;fontStyle=0;" vertex="1" parent="qTauqA9gqiph0CW3DHrp-1">
          <mxGeometry x="630" y="430" width="200" height="80" as="geometry" />
        </mxCell>
        <mxCell id="HDX4HPnBfFSnDsaNg2Rt-9" style="edgeStyle=orthogonalEdgeStyle;rounded=0;orthogonalLoop=1;jettySize=auto;html=1;exitX=0.5;exitY=1;exitDx=0;exitDy=0;fontSize=17;" edge="1" parent="qTauqA9gqiph0CW3DHrp-1">
          <mxGeometry relative="1" as="geometry">
            <mxPoint x="939.8333333333335" y="430" as="targetPoint" />
            <mxPoint x="940" y="400" as="sourcePoint" />
          </mxGeometry>
        </mxCell>
        <mxCell id="HDX4HPnBfFSnDsaNg2Rt-10" value="Put in a value of &#39;NULL&#39; for the user_id" style="rounded=0;whiteSpace=wrap;html=1;fontSize=17;align=center;fontStyle=0;" vertex="1" parent="qTauqA9gqiph0CW3DHrp-1">
          <mxGeometry x="840" y="430" width="200" height="80" as="geometry" />
        </mxCell>
      </root>
    </mxGraphModel>
  </diagram>
  <diagram name="10 - delete constraints" id="cdEbYzI7ik-G1-s8NtTz">
    <mxGraphModel dx="626" dy="386" grid="1" gridSize="10" guides="1" tooltips="1" connect="1" arrows="1" fold="1" page="1" pageScale="1" pageWidth="1920" pageHeight="1200" math="0" shadow="0">
      <root>
        <mxCell id="m5Qckg0_J88RMpyR3gg7-0" />
        <mxCell id="m5Qckg0_J88RMpyR3gg7-1" parent="m5Qckg0_J88RMpyR3gg7-0" />
        <mxCell id="m5Qckg0_J88RMpyR3gg7-2" value="Database" style="rounded=0;whiteSpace=wrap;html=1;shadow=1;fontSize=22;fillColor=#d5e8d4;strokeColor=#82b366;" vertex="1" parent="m5Qckg0_J88RMpyR3gg7-1">
          <mxGeometry x="400" y="260" width="530" height="30" as="geometry" />
        </mxCell>
        <mxCell id="m5Qckg0_J88RMpyR3gg7-3" value="" style="rounded=0;whiteSpace=wrap;html=1;shadow=1;fontSize=22;fillColor=#d5e8d4;strokeColor=#82b366;" vertex="1" parent="m5Qckg0_J88RMpyR3gg7-1">
          <mxGeometry x="400" y="290" width="530" height="260" as="geometry" />
        </mxCell>
        <mxCell id="m5Qckg0_J88RMpyR3gg7-4" value="photos" style="rounded=0;whiteSpace=wrap;html=1;shadow=1;fontSize=20;fillColor=#ffe6cc;strokeColor=#d79b00;" vertex="1" parent="m5Qckg0_J88RMpyR3gg7-1">
          <mxGeometry x="415" y="305" width="240" height="25" as="geometry" />
        </mxCell>
        <mxCell id="m5Qckg0_J88RMpyR3gg7-5" value="id&lt;br&gt;&lt;font style=&quot;font-size: 8px&quot;&gt;INTEGER&lt;/font&gt;" style="rounded=0;whiteSpace=wrap;html=1;shadow=1;fontSize=12;fillColor=#f5f5f5;strokeColor=#666666;fontColor=#333333;fontStyle=2" vertex="1" parent="m5Qckg0_J88RMpyR3gg7-1">
          <mxGeometry x="415" y="330" width="80" height="35" as="geometry" />
        </mxCell>
        <mxCell id="m5Qckg0_J88RMpyR3gg7-6" value="url&lt;br&gt;&lt;span style=&quot;font-size: 8px&quot;&gt;VARCHAR(200)&lt;/span&gt;" style="rounded=0;whiteSpace=wrap;html=1;shadow=1;fontSize=12;fillColor=#f5f5f5;strokeColor=#666666;fontColor=#333333;fontStyle=2" vertex="1" parent="m5Qckg0_J88RMpyR3gg7-1">
          <mxGeometry x="495" y="330" width="80" height="35" as="geometry" />
        </mxCell>
        <mxCell id="m5Qckg0_J88RMpyR3gg7-7" value="user_id&lt;br&gt;&lt;span style=&quot;font-size: 8px&quot;&gt;INTEGER&lt;/span&gt;" style="rounded=0;whiteSpace=wrap;html=1;shadow=1;fontSize=12;fillColor=#f5f5f5;strokeColor=#666666;fontColor=#333333;fontStyle=2" vertex="1" parent="m5Qckg0_J88RMpyR3gg7-1">
          <mxGeometry x="575" y="330" width="80" height="35" as="geometry" />
        </mxCell>
        <mxCell id="m5Qckg0_J88RMpyR3gg7-8" value="1" style="rounded=0;whiteSpace=wrap;html=1;shadow=1;fontSize=12;fontStyle=0" vertex="1" parent="m5Qckg0_J88RMpyR3gg7-1">
          <mxGeometry x="415" y="365" width="80" height="25" as="geometry" />
        </mxCell>
        <mxCell id="m5Qckg0_J88RMpyR3gg7-9" value="http://img1.jpg" style="rounded=0;whiteSpace=wrap;html=1;shadow=1;fontSize=12;fontStyle=0" vertex="1" parent="m5Qckg0_J88RMpyR3gg7-1">
          <mxGeometry x="495" y="365" width="80" height="25" as="geometry" />
        </mxCell>
        <mxCell id="m5Qckg0_J88RMpyR3gg7-10" value="4" style="rounded=0;whiteSpace=wrap;html=1;shadow=1;fontSize=12;fontStyle=0" vertex="1" parent="m5Qckg0_J88RMpyR3gg7-1">
          <mxGeometry x="575" y="365" width="80" height="25" as="geometry" />
        </mxCell>
        <mxCell id="m5Qckg0_J88RMpyR3gg7-20" value="users" style="rounded=0;whiteSpace=wrap;html=1;shadow=1;fontSize=20;fillColor=#ffe6cc;strokeColor=#d79b00;" vertex="1" parent="m5Qckg0_J88RMpyR3gg7-1">
          <mxGeometry x="755" y="305" width="160" height="25" as="geometry" />
        </mxCell>
        <mxCell id="m5Qckg0_J88RMpyR3gg7-21" value="id&lt;br&gt;&lt;font style=&quot;font-size: 8px&quot;&gt;INTEGER&lt;/font&gt;" style="rounded=0;whiteSpace=wrap;html=1;shadow=1;fontSize=12;fillColor=#f5f5f5;strokeColor=#666666;fontColor=#333333;fontStyle=2" vertex="1" parent="m5Qckg0_J88RMpyR3gg7-1">
          <mxGeometry x="755" y="330" width="80" height="35" as="geometry" />
        </mxCell>
        <mxCell id="m5Qckg0_J88RMpyR3gg7-22" value="username&lt;br&gt;&lt;span style=&quot;font-size: 8px&quot;&gt;VARCHAR(50)&lt;/span&gt;" style="rounded=0;whiteSpace=wrap;html=1;shadow=1;fontSize=12;fillColor=#f5f5f5;strokeColor=#666666;fontColor=#333333;fontStyle=2" vertex="1" parent="m5Qckg0_J88RMpyR3gg7-1">
          <mxGeometry x="835" y="330" width="80" height="35" as="geometry" />
        </mxCell>
        <mxCell id="FimYFKHrZffh0DR11YzM-0" value="2" style="rounded=0;whiteSpace=wrap;html=1;shadow=1;fontSize=12;fontStyle=0" vertex="1" parent="m5Qckg0_J88RMpyR3gg7-1">
          <mxGeometry x="415" y="390" width="80" height="25" as="geometry" />
        </mxCell>
        <mxCell id="FimYFKHrZffh0DR11YzM-1" value="http://img1.jpg" style="rounded=0;whiteSpace=wrap;html=1;shadow=1;fontSize=12;fontStyle=0" vertex="1" parent="m5Qckg0_J88RMpyR3gg7-1">
          <mxGeometry x="495" y="390" width="80" height="25" as="geometry" />
        </mxCell>
        <mxCell id="FimYFKHrZffh0DR11YzM-2" value="1" style="rounded=0;whiteSpace=wrap;html=1;shadow=1;fontSize=12;fontStyle=0" vertex="1" parent="m5Qckg0_J88RMpyR3gg7-1">
          <mxGeometry x="575" y="390" width="80" height="25" as="geometry" />
        </mxCell>
        <mxCell id="FimYFKHrZffh0DR11YzM-3" value="3" style="rounded=0;whiteSpace=wrap;html=1;shadow=1;fontSize=12;fontStyle=0" vertex="1" parent="m5Qckg0_J88RMpyR3gg7-1">
          <mxGeometry x="415" y="415" width="80" height="25" as="geometry" />
        </mxCell>
        <mxCell id="FimYFKHrZffh0DR11YzM-4" value="http://img1.jpg" style="rounded=0;whiteSpace=wrap;html=1;shadow=1;fontSize=12;fontStyle=0" vertex="1" parent="m5Qckg0_J88RMpyR3gg7-1">
          <mxGeometry x="495" y="415" width="80" height="25" as="geometry" />
        </mxCell>
        <mxCell id="FimYFKHrZffh0DR11YzM-5" value="1" style="rounded=0;whiteSpace=wrap;html=1;shadow=1;fontSize=12;fontStyle=0" vertex="1" parent="m5Qckg0_J88RMpyR3gg7-1">
          <mxGeometry x="575" y="415" width="80" height="25" as="geometry" />
        </mxCell>
        <mxCell id="FimYFKHrZffh0DR11YzM-6" value="4" style="rounded=0;whiteSpace=wrap;html=1;shadow=1;fontSize=12;fontStyle=0" vertex="1" parent="m5Qckg0_J88RMpyR3gg7-1">
          <mxGeometry x="415" y="440" width="80" height="25" as="geometry" />
        </mxCell>
        <mxCell id="FimYFKHrZffh0DR11YzM-7" value="http://img1.jpg" style="rounded=0;whiteSpace=wrap;html=1;shadow=1;fontSize=12;fontStyle=0" vertex="1" parent="m5Qckg0_J88RMpyR3gg7-1">
          <mxGeometry x="495" y="440" width="80" height="25" as="geometry" />
        </mxCell>
        <mxCell id="FimYFKHrZffh0DR11YzM-8" value="1" style="rounded=0;whiteSpace=wrap;html=1;shadow=1;fontSize=12;fontStyle=0" vertex="1" parent="m5Qckg0_J88RMpyR3gg7-1">
          <mxGeometry x="575" y="440" width="80" height="25" as="geometry" />
        </mxCell>
        <mxCell id="m5Qckg0_J88RMpyR3gg7-31" value="5" style="rounded=0;whiteSpace=wrap;html=1;shadow=1;fontSize=12;fontStyle=0" vertex="1" parent="m5Qckg0_J88RMpyR3gg7-1">
          <mxGeometry x="415" y="465" width="80" height="25" as="geometry" />
        </mxCell>
        <mxCell id="m5Qckg0_J88RMpyR3gg7-32" value="http://img5.jpg" style="rounded=0;whiteSpace=wrap;html=1;shadow=1;fontSize=12;fontStyle=0" vertex="1" parent="m5Qckg0_J88RMpyR3gg7-1">
          <mxGeometry x="495" y="465" width="80" height="25" as="geometry" />
        </mxCell>
        <mxCell id="m5Qckg0_J88RMpyR3gg7-33" value="2" style="rounded=0;whiteSpace=wrap;html=1;shadow=1;fontSize=12;fontStyle=0" vertex="1" parent="m5Qckg0_J88RMpyR3gg7-1">
          <mxGeometry x="575" y="465" width="80" height="25" as="geometry" />
        </mxCell>
        <mxCell id="m5Qckg0_J88RMpyR3gg7-34" value="6" style="rounded=0;whiteSpace=wrap;html=1;shadow=1;fontSize=12;fontStyle=0" vertex="1" parent="m5Qckg0_J88RMpyR3gg7-1">
          <mxGeometry x="415" y="490" width="80" height="25" as="geometry" />
        </mxCell>
        <mxCell id="m5Qckg0_J88RMpyR3gg7-35" value="http://img6.jpg" style="rounded=0;whiteSpace=wrap;html=1;shadow=1;fontSize=12;fontStyle=0" vertex="1" parent="m5Qckg0_J88RMpyR3gg7-1">
          <mxGeometry x="495" y="490" width="80" height="25" as="geometry" />
        </mxCell>
        <mxCell id="m5Qckg0_J88RMpyR3gg7-36" value="3" style="rounded=0;whiteSpace=wrap;html=1;shadow=1;fontSize=12;fontStyle=0" vertex="1" parent="m5Qckg0_J88RMpyR3gg7-1">
          <mxGeometry x="575" y="490" width="80" height="25" as="geometry" />
        </mxCell>
        <mxCell id="m5Qckg0_J88RMpyR3gg7-37" value="7" style="rounded=0;whiteSpace=wrap;html=1;shadow=1;fontSize=12;fontStyle=0" vertex="1" parent="m5Qckg0_J88RMpyR3gg7-1">
          <mxGeometry x="415" y="515" width="80" height="25" as="geometry" />
        </mxCell>
        <mxCell id="m5Qckg0_J88RMpyR3gg7-38" value="http://img6.jpg" style="rounded=0;whiteSpace=wrap;html=1;shadow=1;fontSize=12;fontStyle=0" vertex="1" parent="m5Qckg0_J88RMpyR3gg7-1">
          <mxGeometry x="495" y="515" width="80" height="25" as="geometry" />
        </mxCell>
        <mxCell id="m5Qckg0_J88RMpyR3gg7-39" value="4" style="rounded=0;whiteSpace=wrap;html=1;shadow=1;fontSize=12;fontStyle=0" vertex="1" parent="m5Qckg0_J88RMpyR3gg7-1">
          <mxGeometry x="575" y="515" width="80" height="25" as="geometry" />
        </mxCell>
        <mxCell id="FimYFKHrZffh0DR11YzM-9" value="1" style="rounded=0;whiteSpace=wrap;html=1;shadow=1;fontSize=12;fontStyle=0" vertex="1" parent="m5Qckg0_J88RMpyR3gg7-1">
          <mxGeometry x="755" y="365" width="80" height="25" as="geometry" />
        </mxCell>
        <mxCell id="FimYFKHrZffh0DR11YzM-10" value="monahan93" style="rounded=0;whiteSpace=wrap;html=1;shadow=1;fontSize=12;fontStyle=0" vertex="1" parent="m5Qckg0_J88RMpyR3gg7-1">
          <mxGeometry x="835" y="365" width="80" height="25" as="geometry" />
        </mxCell>
        <mxCell id="m5Qckg0_J88RMpyR3gg7-25" value="2" style="rounded=0;whiteSpace=wrap;html=1;shadow=1;fontSize=12;fontStyle=0" vertex="1" parent="m5Qckg0_J88RMpyR3gg7-1">
          <mxGeometry x="755" y="390" width="80" height="25" as="geometry" />
        </mxCell>
        <mxCell id="m5Qckg0_J88RMpyR3gg7-26" value="pfeffer" style="rounded=0;whiteSpace=wrap;html=1;shadow=1;fontSize=12;fontStyle=0" vertex="1" parent="m5Qckg0_J88RMpyR3gg7-1">
          <mxGeometry x="835" y="390" width="80" height="25" as="geometry" />
        </mxCell>
        <mxCell id="m5Qckg0_J88RMpyR3gg7-27" value="3" style="rounded=0;whiteSpace=wrap;html=1;shadow=1;fontSize=12;fontStyle=0" vertex="1" parent="m5Qckg0_J88RMpyR3gg7-1">
          <mxGeometry x="755" y="415" width="80" height="25" as="geometry" />
        </mxCell>
        <mxCell id="m5Qckg0_J88RMpyR3gg7-28" value="99stroman" style="rounded=0;whiteSpace=wrap;html=1;shadow=1;fontSize=12;fontStyle=0" vertex="1" parent="m5Qckg0_J88RMpyR3gg7-1">
          <mxGeometry x="835" y="415" width="80" height="25" as="geometry" />
        </mxCell>
        <mxCell id="FimYFKHrZffh0DR11YzM-11" value="4" style="rounded=0;whiteSpace=wrap;html=1;shadow=1;fontSize=12;fontStyle=0" vertex="1" parent="m5Qckg0_J88RMpyR3gg7-1">
          <mxGeometry x="755" y="440" width="80" height="25" as="geometry" />
        </mxCell>
        <mxCell id="FimYFKHrZffh0DR11YzM-12" value="99stroman" style="rounded=0;whiteSpace=wrap;html=1;shadow=1;fontSize=12;fontStyle=0" vertex="1" parent="m5Qckg0_J88RMpyR3gg7-1">
          <mxGeometry x="835" y="440" width="80" height="25" as="geometry" />
        </mxCell>
      </root>
    </mxGraphModel>
  </diagram>
  <diagram id="7S2-n_R41DHFHVLEk6vL" name="11 - const">
    <mxGraphModel dx="770" dy="475" grid="1" gridSize="10" guides="1" tooltips="1" connect="1" arrows="1" fold="1" page="1" pageScale="1" pageWidth="1920" pageHeight="1200" math="0" shadow="0">
      <root>
        <mxCell id="NhKjVNXtDoNSd-diLXUg-0" />
        <mxCell id="NhKjVNXtDoNSd-diLXUg-1" parent="NhKjVNXtDoNSd-diLXUg-0" />
        <mxCell id="TZTww8UExHq0T6hXxvGx-6" style="edgeStyle=orthogonalEdgeStyle;rounded=0;orthogonalLoop=1;jettySize=auto;html=1;exitX=1;exitY=0.5;exitDx=0;exitDy=0;fontSize=21;" edge="1" parent="NhKjVNXtDoNSd-diLXUg-1" source="TZTww8UExHq0T6hXxvGx-0" target="TZTww8UExHq0T6hXxvGx-5">
          <mxGeometry relative="1" as="geometry" />
        </mxCell>
        <mxCell id="TZTww8UExHq0T6hXxvGx-0" value="ON DELETE RESTRICT" style="rounded=0;whiteSpace=wrap;html=1;fontSize=15;align=center;fillColor=#dae8fc;strokeColor=#6c8ebf;fontStyle=1" vertex="1" parent="NhKjVNXtDoNSd-diLXUg-1">
          <mxGeometry x="600" y="340" width="210" height="60" as="geometry" />
        </mxCell>
        <mxCell id="TZTww8UExHq0T6hXxvGx-1" value="On Delete Option" style="text;html=1;strokeColor=none;fillColor=none;align=center;verticalAlign=middle;whiteSpace=wrap;rounded=0;fontSize=21;fontStyle=1" vertex="1" parent="NhKjVNXtDoNSd-diLXUg-1">
          <mxGeometry x="610" y="250" width="190" height="10" as="geometry" />
        </mxCell>
        <mxCell id="TZTww8UExHq0T6hXxvGx-5" value="Throw an error" style="rounded=0;whiteSpace=wrap;html=1;fontSize=17;align=center;" vertex="1" parent="NhKjVNXtDoNSd-diLXUg-1">
          <mxGeometry x="850" y="340" width="260" height="60" as="geometry" />
        </mxCell>
        <mxCell id="TZTww8UExHq0T6hXxvGx-7" style="edgeStyle=orthogonalEdgeStyle;rounded=0;orthogonalLoop=1;jettySize=auto;html=1;exitX=1;exitY=0.5;exitDx=0;exitDy=0;fontSize=21;" edge="1" parent="NhKjVNXtDoNSd-diLXUg-1" source="TZTww8UExHq0T6hXxvGx-8">
          <mxGeometry relative="1" as="geometry">
            <mxPoint x="850" y="300" as="targetPoint" />
          </mxGeometry>
        </mxCell>
        <mxCell id="TZTww8UExHq0T6hXxvGx-8" value="ON DELETE NO ACTION" style="rounded=0;whiteSpace=wrap;html=1;fontSize=15;align=center;fillColor=#dae8fc;strokeColor=#6c8ebf;fontStyle=1" vertex="1" parent="NhKjVNXtDoNSd-diLXUg-1">
          <mxGeometry x="600" y="270" width="210" height="60" as="geometry" />
        </mxCell>
        <mxCell id="TZTww8UExHq0T6hXxvGx-10" style="edgeStyle=orthogonalEdgeStyle;rounded=0;orthogonalLoop=1;jettySize=auto;html=1;exitX=1;exitY=0.5;exitDx=0;exitDy=0;fontSize=21;" edge="1" parent="NhKjVNXtDoNSd-diLXUg-1" source="TZTww8UExHq0T6hXxvGx-11">
          <mxGeometry relative="1" as="geometry">
            <mxPoint x="850" y="440" as="targetPoint" />
          </mxGeometry>
        </mxCell>
        <mxCell id="TZTww8UExHq0T6hXxvGx-11" value="ON DELETE CASCADE" style="rounded=0;whiteSpace=wrap;html=1;fontSize=15;align=center;fillColor=#dae8fc;strokeColor=#6c8ebf;fontStyle=1" vertex="1" parent="NhKjVNXtDoNSd-diLXUg-1">
          <mxGeometry x="600" y="410" width="210" height="60" as="geometry" />
        </mxCell>
        <mxCell id="TZTww8UExHq0T6hXxvGx-13" style="edgeStyle=orthogonalEdgeStyle;rounded=0;orthogonalLoop=1;jettySize=auto;html=1;exitX=1;exitY=0.5;exitDx=0;exitDy=0;fontSize=21;" edge="1" parent="NhKjVNXtDoNSd-diLXUg-1" source="TZTww8UExHq0T6hXxvGx-14">
          <mxGeometry relative="1" as="geometry">
            <mxPoint x="850" y="510" as="targetPoint" />
          </mxGeometry>
        </mxCell>
        <mxCell id="TZTww8UExHq0T6hXxvGx-14" value="ON DELETE SET NULL" style="rounded=0;whiteSpace=wrap;html=1;fontSize=15;align=center;fillColor=#dae8fc;strokeColor=#6c8ebf;fontStyle=1" vertex="1" parent="NhKjVNXtDoNSd-diLXUg-1">
          <mxGeometry x="600" y="480" width="210" height="60" as="geometry" />
        </mxCell>
        <mxCell id="TZTww8UExHq0T6hXxvGx-16" style="edgeStyle=orthogonalEdgeStyle;rounded=0;orthogonalLoop=1;jettySize=auto;html=1;exitX=1;exitY=0.5;exitDx=0;exitDy=0;fontSize=21;" edge="1" parent="NhKjVNXtDoNSd-diLXUg-1" source="TZTww8UExHq0T6hXxvGx-17">
          <mxGeometry relative="1" as="geometry">
            <mxPoint x="850" y="580" as="targetPoint" />
          </mxGeometry>
        </mxCell>
        <mxCell id="TZTww8UExHq0T6hXxvGx-17" value="ON DELETE SET DEFAULT" style="rounded=0;whiteSpace=wrap;html=1;fontSize=15;align=center;fillColor=#dae8fc;strokeColor=#6c8ebf;fontStyle=1" vertex="1" parent="NhKjVNXtDoNSd-diLXUg-1">
          <mxGeometry x="600" y="550" width="210" height="60" as="geometry" />
        </mxCell>
        <mxCell id="TZTww8UExHq0T6hXxvGx-19" value="What happens if you try to delete a user when a photo is still referencing it" style="text;html=1;strokeColor=none;fillColor=none;align=center;verticalAlign=middle;whiteSpace=wrap;rounded=0;fontSize=21;fontStyle=1" vertex="1" parent="NhKjVNXtDoNSd-diLXUg-1">
          <mxGeometry x="840" y="180" width="270" height="100" as="geometry" />
        </mxCell>
        <mxCell id="TZTww8UExHq0T6hXxvGx-20" value="Throw an error" style="rounded=0;whiteSpace=wrap;html=1;fontSize=17;align=center;" vertex="1" parent="NhKjVNXtDoNSd-diLXUg-1">
          <mxGeometry x="850" y="270" width="260" height="60" as="geometry" />
        </mxCell>
        <mxCell id="TZTww8UExHq0T6hXxvGx-21" value="Delete the photo too!" style="rounded=0;whiteSpace=wrap;html=1;fontSize=17;align=center;" vertex="1" parent="NhKjVNXtDoNSd-diLXUg-1">
          <mxGeometry x="850" y="410" width="260" height="60" as="geometry" />
        </mxCell>
        <mxCell id="TZTww8UExHq0T6hXxvGx-22" value="Set the &#39;user_id&#39; of the photo to &#39;NULL&#39;" style="rounded=0;whiteSpace=wrap;html=1;fontSize=17;align=center;" vertex="1" parent="NhKjVNXtDoNSd-diLXUg-1">
          <mxGeometry x="850" y="480" width="260" height="60" as="geometry" />
        </mxCell>
        <mxCell id="TZTww8UExHq0T6hXxvGx-23" value="Set the &#39;user_id&#39; of the photo to a default value, if one is provided" style="rounded=0;whiteSpace=wrap;html=1;fontSize=17;align=center;" vertex="1" parent="NhKjVNXtDoNSd-diLXUg-1">
          <mxGeometry x="850" y="550" width="260" height="60" as="geometry" />
        </mxCell>
      </root>
    </mxGraphModel>
  </diagram>
</mxfile>
